<svg width="187" height="187" viewBox="0 0 187 187" fill="none" xmlns="http://www.w3.org/2000/svg">
<path fill-rule="evenodd" clip-rule="evenodd" d="M93.2515 168.688C134.914 168.688 168.688 134.914 168.688 93.2513C168.688 51.5887 134.914 17.8144 93.2515 17.8144C51.5888 17.8144 17.8146 51.5887 17.8146 93.2513C17.8146 134.914 51.5888 168.688 93.2515 168.688ZM93.2515 174.846C138.315 174.846 174.847 138.315 174.847 93.2513C174.847 48.1876 138.315 11.6562 93.2515 11.6562C48.1878 11.6562 11.6564 48.1876 11.6564 93.2513C11.6564 138.315 48.1878 174.846 93.2515 174.846Z" fill="#00B456"/>
<path fill-rule="evenodd" clip-rule="evenodd" d="M107.1 136.471C107.888 138.168 107.151 140.182 105.455 140.97C97.6141 144.611 89.8461 145.279 83.4815 142.357C77.0257 139.394 72.8168 133.111 71.4342 124.584L78.1208 123.5C79.2378 130.389 82.3931 134.404 86.3073 136.201C90.3127 138.04 95.9203 137.928 102.602 134.826C104.298 134.038 106.312 134.775 107.1 136.471Z" fill="#00B456"/>
<path fill-rule="evenodd" clip-rule="evenodd" d="M97.8701 102.489V88.6328H104.028V108.647H87.0934V102.489H97.8701Z" fill="#00B456"/>
<path d="M136.358 73.2362C136.358 76.6373 133.601 79.3944 130.2 79.3944C126.799 79.3944 124.042 76.6373 124.042 73.2362C124.042 69.8352 126.799 67.0781 130.2 67.0781C133.601 67.0781 136.358 69.8352 136.358 73.2362Z" fill="#00B456"/>
<path d="M62.461 73.2362C62.461 76.6373 59.7039 79.3944 56.3028 79.3944C52.9018 79.3944 50.1447 76.6373 50.1447 73.2362C50.1447 69.8352 52.9018 67.0781 56.3028 67.0781C59.7039 67.0781 62.461 69.8352 62.461 73.2362Z" fill="#00B456"/>
</svg>
