<svg width="187" height="187" viewBox="0 0 187 187" fill="none" xmlns="http://www.w3.org/2000/svg">
<path d="M138.401 34.7353C137.779 34.7353 137.157 34.5799 136.613 34.269C121.693 26.5758 108.793 23.312 93.3292 23.312C77.9427 23.312 63.3333 26.9643 50.0449 34.269C48.1799 35.2793 45.8486 34.5799 44.7607 32.7148C43.7504 30.8498 44.4498 28.4408 46.3148 27.4306C60.7688 19.5819 76.6216 15.541 93.3292 15.541C109.881 15.541 124.335 19.1934 140.188 27.3529C142.131 28.3631 142.83 30.6944 141.82 32.5594C141.121 33.9582 139.8 34.7353 138.401 34.7353ZM27.1983 75.5328C26.4212 75.5328 25.6441 75.2997 24.9447 74.8335C23.1574 73.5901 22.7688 71.1811 24.0122 69.3938C31.7054 58.5144 41.4969 49.9664 53.1533 43.9827C77.5541 31.3938 108.793 31.3161 133.272 43.905C144.928 49.8887 154.72 58.359 162.413 69.1606C163.656 70.8703 163.268 73.357 161.48 74.6003C159.693 75.8437 157.284 75.4551 156.041 73.6678C149.047 63.8764 140.188 56.1831 129.697 50.8212C107.395 39.3979 78.8752 39.3979 56.6502 50.8989C46.0817 56.3386 37.2228 64.1095 30.229 73.9009C29.6073 74.9889 28.4416 75.5328 27.1983 75.5328ZM75.7668 169.328C74.7566 169.328 73.7463 168.94 73.047 168.163C66.2862 161.402 62.6339 157.05 57.4273 147.647C52.0654 138.089 49.2678 126.433 49.2678 113.921C49.2678 90.8416 69.0061 72.0359 93.2515 72.0359C117.497 72.0359 137.235 90.8416 137.235 113.921C137.235 116.097 135.525 117.807 133.35 117.807C131.174 117.807 129.464 116.097 129.464 113.921C129.464 95.1157 113.223 79.8069 93.2515 79.8069C73.2801 79.8069 57.0388 95.1157 57.0388 113.921C57.0388 125.112 59.5255 135.447 64.2658 143.84C69.2392 152.776 72.6584 156.584 78.642 162.645C80.1185 164.2 80.1185 166.609 78.642 168.163C77.7872 168.94 76.777 169.328 75.7668 169.328ZM131.485 154.952C122.237 154.952 114.078 152.621 107.395 148.036C95.8159 140.187 88.8997 127.443 88.8997 113.921C88.8997 111.746 90.6093 110.036 92.7852 110.036C94.9611 110.036 96.6707 111.746 96.6707 113.921C96.6707 124.878 102.266 135.214 111.746 141.586C117.264 145.316 123.714 147.103 131.485 147.103C133.35 147.103 136.458 146.87 139.566 146.326C141.665 145.938 143.685 147.337 144.074 149.512C144.462 151.611 143.063 153.631 140.887 154.02C136.458 154.874 132.573 154.952 131.485 154.952ZM115.865 170.96C115.554 170.96 115.166 170.883 114.855 170.805C102.499 167.386 94.4171 162.801 85.9468 154.486C75.0674 143.684 69.0838 129.308 69.0838 113.921C69.0838 101.332 79.8077 91.0748 93.0183 91.0748C106.229 91.0748 116.953 101.332 116.953 113.921C116.953 122.236 124.18 128.997 133.116 128.997C142.053 128.997 149.28 122.236 149.28 113.921C149.28 84.6249 124.024 60.8457 92.9406 60.8457C70.8711 60.8457 50.6666 73.1238 41.5746 92.1627C38.5439 98.4572 36.9897 105.84 36.9897 113.921C36.9897 119.983 37.5337 129.541 42.1962 141.975C42.9733 143.995 41.9631 146.249 39.9427 146.948C37.9222 147.725 35.6686 146.637 34.9692 144.694C31.1615 134.514 29.2964 124.412 29.2964 113.921C29.2964 104.596 31.0838 96.1259 34.5807 88.7435C44.9161 67.0625 67.8404 52.9971 92.9406 52.9971C128.298 52.9971 157.051 80.2731 157.051 113.844C157.051 126.433 146.327 136.69 133.116 136.69C119.906 136.69 109.182 126.433 109.182 113.844C109.182 105.529 101.955 98.768 93.0183 98.768C84.0817 98.768 76.8547 105.529 76.8547 113.844C76.8547 127.132 81.9836 139.566 91.3864 148.891C98.7688 156.195 105.84 160.236 116.797 163.267C118.896 163.811 120.061 165.987 119.517 168.007C119.129 169.795 117.497 170.96 115.865 170.96Z" fill="#00B456"/>
</svg>
