<svg width="24" height="24" viewBox="0 0 24 24" fill="none" xmlns="http://www.w3.org/2000/svg">
<path d="M18.364 15.5362L16.95 14.1202L18.364 12.7062C19.2949 11.7671 19.8159 10.4976 19.813 9.17527C19.8101 7.85298 19.2836 6.58568 18.3486 5.65068C17.4136 4.71568 16.1463 4.18912 14.824 4.18623C13.5017 4.18333 12.2321 4.70434 11.293 5.63523L9.87801 7.05023L8.46401 5.63623L9.87801 4.22223C11.1908 2.90941 12.9714 2.17188 14.828 2.17188C16.6846 2.17188 18.4652 2.90941 19.778 4.22223C21.0908 5.53505 21.8284 7.31562 21.8284 9.17223C21.8284 11.0288 21.0908 12.8094 19.778 14.1222L18.364 15.5362ZM15.535 18.3642L14.121 19.7782C12.8082 21.0911 11.0276 21.8286 9.17101 21.8286C7.3144 21.8286 5.53383 21.0911 4.22101 19.7782C2.90819 18.4654 2.17065 16.6848 2.17065 14.8282C2.17065 12.9716 2.90819 11.1911 4.22101 9.87823L5.63601 8.46423L7.05001 9.88023L5.63601 11.2942C4.71788 12.2358 4.20768 13.5012 4.21592 14.8163C4.22416 16.1313 4.75018 17.3902 5.68003 18.3202C6.60989 19.2502 7.8687 19.7764 9.18378 19.7848C10.4989 19.7933 11.7643 19.2832 12.706 18.3652L14.121 16.9512L15.535 18.3642ZM14.828 7.75723L16.243 9.17223L9.17101 16.2422L7.75701 14.8282L14.828 7.75723Z" fill="white"/>
</svg>
