<svg width="24" height="24" viewBox="0 0 24 24" fill="none" xmlns="http://www.w3.org/2000/svg">
<g clip-path="url(#clip0_183_11757)">
<path d="M19.5 10.5V17.5C19.5 18.0304 19.2893 18.5391 18.9142 18.9142C18.5392 19.2893 18.0305 19.5 17.5 19.5H7.54302C7.01414 19.5 6.50679 19.2905 6.13198 18.9174C5.75716 18.5443 5.5454 18.0379 5.54302 17.509L5.50002 7.509C5.49763 6.97874 5.70591 6.46923 6.07908 6.0925C6.45225 5.71576 6.95976 5.50265 7.49002 5.5H14.5" stroke="white" stroke-linecap="round" stroke-linejoin="round"/>
<path d="M19 8C20.1046 8 21 7.10457 21 6C21 4.89543 20.1046 4 19 4C17.8954 4 17 4.89543 17 6C17 7.10457 17.8954 8 19 8Z" fill="white" stroke="white" stroke-linecap="round" stroke-linejoin="round"/>
</g>
<defs>
<clipPath id="clip0_183_11757">
<rect width="24" height="24" fill="white"/>
</clipPath>
</defs>
</svg>
