<svg width="294" height="377" viewBox="0 0 294 377" fill="none" xmlns="http://www.w3.org/2000/svg">
<mask id="mask0_9_19544" style="mask-type:luminance" maskUnits="userSpaceOnUse" x="0" y="96" width="267" height="268">
<path d="M266.586 230.051C266.586 303.603 206.908 363.226 133.291 363.226C59.6749 363.226 7.62939e-06 303.603 7.62939e-06 230.051C7.62939e-06 156.499 59.6749 96.8766 133.291 96.8766C206.908 96.8766 266.586 156.499 266.586 230.051Z" fill="white"/>
</mask>
<g mask="url(#mask0_9_19544)">
<path d="M124.475 346.691C130.614 344.824 132.788 337.051 132.101 330.689C131.377 324.326 128.822 318.04 129.623 311.677C130.042 308.21 131.53 304.819 133.779 302.114C137.745 297.389 144.571 293.427 143.732 287.293C143.541 285.845 142.931 284.512 142.893 283.064C142.779 278.225 148.728 275.825 151.244 271.748C154.524 266.452 151.55 259.67 148.575 254.222C147.126 251.555 147.355 248.088 145.868 245.421C146.44 241.039 143.465 237.001 140.109 234.143C136.754 231.286 132.826 229 130.233 225.418C129.241 224.009 128.441 222.447 127.144 221.342C125.237 219.78 122.606 219.589 120.128 219.322C114.865 218.713 109.565 217.455 105.065 214.636C100.565 211.855 96.9426 207.321 96.1036 202.101C95.4935 198.139 96.5231 194.1 97.5146 190.214C98.3535 186.976 99.2687 183.623 101.48 181.146C104.417 177.87 109.793 175.546 109.26 171.202C109.069 169.792 108.23 168.459 108.421 167.049C108.878 164.344 112.73 163.811 114.408 161.601C117.916 157.067 110.327 149.485 114.255 145.294C116.047 143.351 119.289 143.618 121.386 141.979C123.483 140.341 123.788 137.141 122.911 134.626C122.034 132.073 120.242 130.016 118.64 127.844C113.988 121.443 111.052 113.862 110.175 106.013C83.9391 115.576 58.6567 125.558 37.2639 143.503C15.9092 161.41 -1.2889 185.032 -8.53423 211.969C0.3127 212.769 8.2063 216.084 14.9178 221.913C15.9474 222.828 17.1295 223.856 18.5023 223.78C19.57 223.742 20.4852 223.056 21.2479 222.332C23.2308 220.542 24.7943 218.294 26.9298 216.694C29.0652 215.055 32.1159 214.179 34.442 215.512C35.8911 216.313 36.8063 217.875 38.2172 218.713C41.6111 220.77 45.882 218.217 48.8183 215.589C51.7546 212.96 55.301 209.874 59.1524 210.902C60.8303 211.359 62.2794 212.617 64.0335 212.807C65.6732 212.96 67.1986 212.198 68.8002 211.893C74.177 210.826 79.8207 216.046 79.1724 221.494C77.9522 232.086 71.6602 243.325 63.1183 249.688C57.8178 253.612 51.03 256.699 48.9708 262.947C47.4836 267.367 48.8564 272.167 50.2292 276.625C51.5639 280.892 53.1274 285.502 56.8644 287.979C58.0084 288.702 59.2668 289.198 60.2202 290.15C62.0124 291.827 62.3175 294.456 62.6607 296.856C63.5378 302.914 65.5588 309.581 70.9356 312.477C73.4524 313.849 76.3887 314.191 78.9818 315.411C87.638 319.487 89.1634 331.222 95.7604 338.156C99.8026 342.385 105.828 344.9 108.344 350.158C109.641 352.863 111.243 356.863 114.103 355.911C115.361 355.454 116.047 354.12 116.734 352.939C118.869 349.396 120.471 347.872 124.475 346.691Z" fill="#D8FBFE"/>
<path d="M149.033 103.155C149.185 109.975 150.024 116.757 151.626 123.348C151.931 124.568 152.312 125.863 153.304 126.587C154.257 127.273 155.515 127.235 156.659 127.349C161.769 127.806 166.46 131.426 168.176 136.264C168.671 137.636 168.976 139.16 170.044 140.151C172.447 142.36 176.26 140.189 179.539 140.417C184.84 140.836 188.005 147.618 193.306 147.771C197.576 147.923 201.275 143.618 205.432 144.532C206.538 144.761 207.529 145.37 208.635 145.637C211.724 146.437 214.851 144.608 217.558 142.856C223.202 139.16 236.434 130.968 242.116 127.311C231.935 115.805 211.152 111.08 196.471 106.508C181.789 101.936 164.439 103.003 149.033 103.155Z" fill="#D8FBFE"/>
<path d="M259.772 336.556C255.806 330.879 243.336 316.858 238.074 312.401C232.773 307.905 226.024 304.781 219.122 305.314C214.431 305.657 208.33 307.029 206.118 302.876C204.974 300.666 205.394 297.427 203.22 296.246C201.199 295.103 198.759 296.856 196.471 296.78C192.2 296.589 190.751 290.912 187.166 288.588C182.857 285.769 175.421 287.826 173.285 283.14C172.675 281.806 172.752 280.244 172.942 278.758C174.086 268.738 178.167 259.061 184.535 251.25C187.433 247.669 191.284 244.316 195.86 244.278C197.996 244.278 200.284 245.002 202.191 244.087C203.83 243.287 204.707 241.497 206.004 240.277C208.101 238.334 211.152 237.801 213.402 236.086C217.139 233.305 217.902 228.085 218.359 223.475C218.588 221.266 218.779 219.056 218.359 216.884C217.825 214.217 216.3 211.855 214.965 209.531C212.067 204.54 209.627 199.129 209.398 193.376C209.169 187.661 211.495 181.527 216.376 178.517C217.596 177.755 218.969 177.184 219.884 176.079C221.219 174.403 221.143 172.002 221.295 169.869C221.944 160.648 243.489 141.789 252.336 139.236C267.78 153.562 295.617 188.652 300.155 209.188C308.773 248.126 280.288 302.342 259.772 336.556Z" fill="#D8FBFE"/>
<path d="M242.116 353.625C230.676 347.757 207.11 332.365 194.449 330.231C190.674 329.622 186.136 329.393 183.696 332.365C182.819 333.47 182.361 334.842 181.446 335.908C178.319 339.566 172.027 337.813 167.985 340.404C162.417 343.947 164.133 353.053 159.596 357.816C157.041 360.521 152.846 361.397 150.672 364.407C148.27 367.76 149.185 372.484 147.584 376.256C176.87 373.513 220.571 373.627 242.116 353.625Z" fill="#D8FBFE"/>
<path d="M29.4084 332.098C36.8826 322.916 38.6748 309.467 33.87 298.647C33.3743 297.542 32.7642 296.437 31.6964 295.903C31.01 295.522 30.2092 295.484 29.4466 295.294C25.4426 294.341 23.1164 289.998 22.8114 285.883C22.5063 281.806 23.7266 277.768 24.2986 273.691C25.0231 268.167 24.5655 262.49 22.8876 257.194C21.2479 251.936 18.0447 246.678 12.8586 244.849C8.58765 243.325 3.8591 244.392 -0.526233 245.497C-1.4033 275.748 11.0282 308.057 29.4084 332.098Z" fill="#D8FBFE"/>
<path d="M292.528 239.973C292.528 313.506 232.85 373.132 159.214 373.132C85.617 373.132 25.9383 313.506 25.9383 239.973C25.9383 166.401 85.617 106.775 159.214 106.775C232.85 106.775 292.528 166.401 292.528 239.973Z" fill="#B2E8ED"/>
</g>
<path d="M150.787 107.042C153.583 106.864 156.392 106.775 159.214 106.775C232.85 106.775 292.528 166.401 292.528 239.973C292.528 313.506 232.85 373.132 159.214 373.132C123.75 373.132 91.5276 359.302 67.6562 336.747" stroke="#25303D" stroke-width="1.6" stroke-miterlimit="10"/>
<path d="M114.255 99.7646C114.408 95.3069 114.255 90.8873 115.399 87.3059C116.543 83.8007 118.945 81.1337 124.132 80.1812C129.966 79.1144 135.877 78.581 141.825 78.581C142.105 78.581 142.385 78.5937 142.664 78.6191C143.63 78.5683 144.546 78.6445 145.41 78.8477C147.965 79.1906 150.444 80.0288 152.427 81.8576C158.719 87.6488 159.176 107.689 153.837 115.576C149.872 122.51 144.533 128.53 138.088 133.293C137.478 133.712 136.83 132.988 136.944 132.416C137.707 128.454 138.05 124.415 137.974 120.415C133.322 120.262 128.708 119.729 124.132 118.891C114.751 117.138 113.95 107.651 114.255 99.7646Z" fill="#FF7D64"/>
<path d="M141.825 78.581C142.105 78.581 142.385 78.5937 142.664 78.6191C143.631 78.5683 144.546 78.6445 145.41 78.8477C147.965 79.1906 150.444 80.0288 152.427 81.8576C158.719 87.6488 159.176 107.689 153.837 115.576C149.872 122.51 144.533 128.53 138.088 133.293C137.478 133.712 136.83 132.988 136.944 132.416C137.707 128.454 138.05 124.415 137.974 120.415" stroke="#25303D" stroke-width="1.8" stroke-miterlimit="10"/>
<path d="M207.796 172.764L216.262 153.905L198.377 167.316L180.455 162.858L160.091 166.821C160.091 166.821 146.173 168.306 146.668 169.792C147.164 171.278 144.19 190.633 144.19 190.633L156.125 197.11L180.455 202.063L190.407 204.044L210.275 197.605L218.74 184.689L207.796 172.764Z" fill="#FF7D64"/>
<path d="M180.455 162.858L160.091 166.821C160.091 166.821 146.173 168.306 146.668 169.792C147.164 171.278 144.19 190.633 144.19 190.633L156.125 197.11L180.455 202.063L190.407 204.044L210.275 197.605" stroke="#25303D" stroke-width="1.6" stroke-miterlimit="10"/>
<path d="M164.667 320.402C162.875 336.594 180.188 353.625 198.682 344.1C204.479 341.128 209.703 335.832 211.8 329.584C213.936 323.221 211.61 316.134 207.682 310.953C206.462 309.276 205.051 307.752 203.487 306.381C204.809 304.12 206.284 301.961 207.911 299.904C208.292 299.447 208.063 298.532 207.339 298.647C203.411 299.256 199.559 300.285 195.86 301.695C194.64 301.237 193.382 300.894 192.085 300.666C185.793 299.485 179.387 301.39 174.239 305.047C168.252 309.315 165.316 314.801 164.667 320.402Z" fill="#FFC260"/>
<path d="M185.297 346.691C189.492 347.224 194.068 346.5 198.682 344.1C204.479 341.128 209.703 335.832 211.8 329.584C213.936 323.221 211.61 316.134 207.682 310.953C206.462 309.276 205.051 307.752 203.487 306.381C204.809 304.12 206.284 301.961 207.911 299.904C208.292 299.447 208.063 298.532 207.339 298.647" stroke="#25303D" stroke-width="1.6" stroke-miterlimit="10"/>
<path d="M127.754 257.956L135.915 248.964C135.686 248.659 135.47 248.342 135.267 248.012C133.97 245.992 133.207 243.706 133.245 241.192C133.284 238.639 134.199 236.124 135.915 233.686C136.347 233.051 136.83 232.441 137.364 231.857C137.898 231.286 138.508 230.752 139.118 230.219C140.376 229.152 141.864 228.085 143.465 227.323C144.279 226.917 145.13 226.536 146.02 226.18C146.897 225.799 147.812 225.571 148.766 225.342C150.672 224.809 152.693 224.618 154.791 224.542C155.859 224.504 156.888 224.618 157.994 224.733C158.528 224.783 159.074 224.847 159.634 224.923C160.168 225.05 160.714 225.164 161.273 225.266C162.341 225.571 163.485 225.799 164.553 226.257C165.672 226.663 166.777 227.12 167.871 227.628C168.938 228.212 169.993 228.822 171.036 229.457C172.065 230.067 172.98 230.867 173.934 231.591C174.391 231.972 174.849 232.353 175.307 232.734C175.739 233.165 176.158 233.584 176.565 233.991C177.404 234.867 178.243 235.667 178.967 236.62C180.416 238.487 181.751 240.315 182.819 242.335C183.353 243.325 183.887 244.24 184.306 245.268C184.738 246.259 185.132 247.25 185.488 248.24C186.175 250.145 186.632 252.165 186.937 253.955C187.052 254.87 187.166 255.746 187.242 256.622C187.268 257.486 187.268 258.324 187.242 259.137C187.09 262.337 186.289 264.928 184.878 266.757C183.467 268.586 181.599 269.576 179.539 269.919C179.005 269.995 178.472 270.033 177.938 270.033C177.404 270.033 176.794 270.072 176.222 269.995C175.078 269.919 173.896 269.653 172.637 269.424C172.002 269.271 171.379 269.094 170.769 268.89C170.12 268.7 169.434 268.548 168.786 268.319C167.489 267.824 166.116 267.367 164.744 266.757C164.057 266.452 163.333 266.223 162.646 265.919C162.29 265.766 161.934 265.601 161.579 265.423C161.223 265.271 160.867 265.119 160.511 264.966C159.748 264.661 159.062 264.242 158.299 263.937C157.562 263.607 156.825 263.239 156.087 262.833C155.325 262.502 154.587 262.147 153.876 261.766C153.151 261.347 152.388 261.042 151.702 260.661C151.346 260.458 151.003 260.254 150.672 260.051C150.317 259.899 149.961 259.721 149.605 259.518C148.918 259.175 148.27 258.718 147.622 258.375C146.287 257.651 145.067 256.775 143.847 256.051C143.236 255.67 142.664 255.213 142.092 254.793C141.737 254.565 141.393 254.324 141.063 254.07L127.754 257.956Z" fill="#00CA6E"/>
<path d="M137.364 231.857C137.898 231.286 138.508 230.752 139.118 230.219C140.376 229.152 141.864 228.085 143.465 227.323C144.279 226.917 145.13 226.536 146.02 226.18C146.897 225.799 147.812 225.571 148.766 225.342C150.672 224.809 152.693 224.618 154.791 224.542C155.859 224.504 156.888 224.618 157.994 224.733C158.528 224.783 159.074 224.847 159.634 224.923C160.168 225.05 160.714 225.164 161.273 225.266C162.341 225.571 163.485 225.799 164.553 226.257C165.672 226.663 166.777 227.12 167.871 227.628C168.938 228.212 169.993 228.822 171.036 229.457C172.065 230.067 172.98 230.867 173.934 231.591C174.391 231.972 174.849 232.353 175.307 232.734C175.739 233.165 176.158 233.584 176.565 233.991C177.404 234.867 178.243 235.667 178.967 236.62C180.416 238.487 181.751 240.315 182.819 242.335C183.353 243.325 183.887 244.24 184.306 245.268C184.738 246.259 185.132 247.25 185.488 248.24C186.175 250.145 186.632 252.165 186.937 253.955C187.052 254.87 187.166 255.746 187.242 256.622C187.268 257.486 187.268 258.324 187.242 259.137C187.09 262.337 186.289 264.928 184.878 266.757C183.467 268.586 181.599 269.576 179.539 269.919C179.005 269.995 178.472 270.033 177.938 270.033C177.404 270.033 176.794 270.072 176.222 269.995C175.078 269.919 173.896 269.653 172.637 269.424C172.002 269.272 171.379 269.094 170.769 268.89C170.12 268.7 169.434 268.548 168.786 268.319C167.489 267.824 166.116 267.367 164.744 266.757C164.057 266.452 163.333 266.223 162.646 265.919C162.29 265.766 161.934 265.601 161.579 265.423C161.223 265.271 160.867 265.119 160.511 264.966C159.748 264.661 159.062 264.242 158.299 263.937C157.562 263.607 156.825 263.239 156.087 262.833C155.325 262.502 154.587 262.147 153.876 261.766C153.151 261.347 152.388 261.042 151.702 260.661C151.346 260.458 151.003 260.254 150.672 260.051C150.317 259.899 149.961 259.721 149.605 259.518" stroke="#25303D" stroke-width="1.6" stroke-miterlimit="10"/>
<path d="M51.6402 143.275C49.5047 131.083 53.6231 118.319 63.4996 110.547C80.3546 97.2881 106.095 104.07 114.598 123.501C116.429 127.692 117.382 132.264 117.382 136.874C117.382 139.96 116.924 142.97 116.124 145.827C116.314 145.789 116.429 145.789 116.391 145.789L115.971 146.437C114.179 152.381 113.607 155.2 107.467 163.43L85.6551 193.986C85.6551 193.986 63.3852 167.735 63.3471 167.735C57.5508 160.877 53.2036 152.19 51.6402 143.275Z" fill="#00B456"/>
<path d="M85.6551 193.986C85.6551 193.986 63.3852 167.735 63.3471 167.735" stroke="#25303D" stroke-width="1.6" stroke-miterlimit="10"/>
<path d="M62.6988 136.95C62.6988 148.38 72.0034 157.677 83.4434 157.677C94.8834 157.677 104.188 148.38 104.188 136.95C104.188 125.52 94.8834 116.224 83.4434 116.224C72.0034 116.224 62.6988 125.52 62.6988 136.95Z" fill="white"/>
<path d="M85.3119 154.743H83.2527C74.6727 154.743 67.6562 147.732 67.6562 139.122V123.12C67.6562 114.509 74.6727 107.499 83.2527 107.499H85.3119C93.8919 107.499 100.908 114.509 100.908 123.12V139.122C100.908 147.732 93.8919 154.743 85.3119 154.743Z" fill="#25303D"/>
<path d="M93.2055 152.838L94.0063 133.864H77.342L74.5964 153.409C74.5964 153.409 86.3415 161.601 93.2055 152.838Z" fill="#F9A585"/>
<path d="M84.3967 110.928C84.3967 110.928 91.0319 111.499 93.93 115.119C96.8282 118.738 97.7815 124.453 97.7815 124.453C97.7815 124.453 102.205 125.253 102.624 130.626C103.006 136.036 98.6586 138.931 89.8879 139.503C81.1172 140.036 75.5498 134.321 74.8252 129.521C74.8252 129.521 75.7023 125.977 79.325 124.453C82.9476 122.929 84.473 115.424 84.3967 110.928Z" fill="#F9A585"/>
<path d="M94.3495 139.731C93.0275 140.011 91.5404 140.201 89.8879 140.303C85.5026 140.608 81.918 139.312 79.325 137.331" stroke="#25303D" stroke-width="1.6" stroke-linecap="round" stroke-linejoin="round"/>
<path d="M69.2197 132.569C70.8975 135.426 74.0626 136.722 76.3124 135.426C78.5623 134.131 79.0199 130.74 77.3802 127.844C75.7023 124.987 72.5373 123.691 70.2874 124.987C68.0375 126.282 67.5799 129.673 69.2197 132.569Z" fill="#F9A585"/>
<path d="M75.321 129.673L70.173 128.34" stroke="#25303D" stroke-width="1.6" stroke-miterlimit="10"/>
<path d="M72.4228 128.911C72.4228 128.911 72.0034 131.692 74.2533 132.264" stroke="#25303D" stroke-width="1.6" stroke-miterlimit="10"/>
<path d="M91.8708 127.006C91.8708 127.006 95.1503 126.511 95.1503 128.035C95.1503 129.597 92.9767 129.94 92.9767 129.94" stroke="#25303D" stroke-width="1.6" stroke-miterlimit="10"/>
<path d="M92.5573 126.93L91.1082 122.472" stroke="#25303D" stroke-width="1.6" stroke-miterlimit="10"/>
<path d="M89.621 132.645L87.2567 132.264C87.2567 132.264 87.4474 134.817 88.4388 134.893C89.4303 134.931 89.621 132.645 89.621 132.645Z" fill="white"/>
<path d="M87.0279 194.519C87.0279 194.519 70.0204 169.145 65.6732 155.276L74.5964 153.409L93.2055 152.838L100.108 154.248C100.108 160.077 96.2562 177.298 87.0279 194.519Z" fill="#F9A585"/>
<path d="M85.4644 125.444C85.6551 126.092 86.1127 126.511 86.5322 126.396C86.9135 126.282 87.066 125.673 86.8754 125.025C86.6847 124.415 86.2271 123.958 85.8458 124.072C85.4644 124.187 85.2738 124.796 85.4644 125.444Z" fill="#25303D"/>
<path d="M94.4639 123.196C94.6165 123.844 95.0741 124.301 95.4554 124.225C95.8749 124.11 96.0655 123.501 95.913 122.853C95.7223 122.205 95.3029 121.748 94.8834 121.863C94.5021 121.939 94.3114 122.548 94.4639 123.196Z" fill="#25303D"/>
<path d="M83.634 117.405C83.634 117.405 93.4724 121.748 100.108 118.967C100.108 118.967 95.0359 107.461 80.5834 110.928C66.1308 114.395 83.634 117.405 83.634 117.405Z" fill="#25303D"/>
<path d="M291.613 158.4C293.749 146.208 289.63 133.445 279.754 125.673C262.899 112.414 237.159 119.196 228.655 138.627C226.825 142.818 225.871 147.39 225.871 152C225.871 155.086 226.329 158.096 227.13 160.953C226.939 160.915 226.825 160.915 226.863 160.915L227.282 161.563C229.075 167.506 229.685 170.326 235.786 178.555L257.598 209.112C257.598 209.112 279.868 182.861 279.906 182.861C285.703 176.003 290.05 167.316 291.613 158.4Z" fill="#00B456"/>
<path d="M279.906 183.242C285.703 176.384 290.05 167.697 291.613 158.781" stroke="#25303D" stroke-width="1.6" stroke-miterlimit="10"/>
<path d="M280.555 152.457C280.555 163.887 271.288 173.183 259.81 173.183C248.37 173.183 239.065 163.887 239.065 152.457C239.065 141.027 248.37 131.73 259.81 131.73C271.288 131.73 280.555 141.027 280.555 152.457Z" fill="white"/>
<path d="M245.586 155.81L246.387 159.886" stroke="#25303D" stroke-width="1.5" stroke-linecap="round" stroke-linejoin="round"/>
<path d="M290.317 161.525C290.317 161.525 281.66 158.096 277.809 152.457C277.809 152.457 283.72 147.999 282.957 142.132C282.194 136.226 277.199 120.643 271.212 118.738C265.225 116.871 252.488 116.414 248.523 123.996C246.54 127.768 243.985 137.217 245.472 143.694C242.116 148.037 241.887 157.905 241.887 157.905L233.345 164.916C233.345 164.916 237.807 185.642 252.412 184.347L255.997 183.394C255.997 183.394 252.145 198.063 251.268 208.883L270.449 209.073C270.449 209.073 276.512 180.003 280.516 172.269L290.317 161.525Z" fill="#00CA6E"/>
<path d="M255.997 183.394L275.254 170.897" stroke="#25303D" stroke-width="1.6" stroke-miterlimit="10"/>
<path d="M277.809 152.457L269.343 159.048" stroke="#25303D" stroke-width="1.6" stroke-miterlimit="10"/>
<path d="M247.645 145.256C247.645 145.256 247.379 163.087 251.611 163.887C255.882 164.649 261.068 157.638 261.068 157.638" stroke="#25303D" stroke-width="1.6" stroke-miterlimit="10"/>
<path d="M241.887 157.905C241.887 157.905 241.392 169.983 246.54 173.526" stroke="#25303D" stroke-width="1.6" stroke-miterlimit="10"/>
<path d="M265.454 144.608C265.454 144.608 269.038 124.987 260.077 122.586C251.077 120.186 249.056 132.111 247.989 135.998C247.989 135.998 242.574 138.093 243.642 143.58C244.671 149.104 255.959 150.78 265.454 144.608Z" fill="#FFB08D"/>
<g style="mix-blend-mode:multiply" opacity="0.5">
<path d="M257.293 141.484C257.37 142.627 258.323 143.541 259.467 143.503C260.649 143.465 261.564 142.475 261.488 141.332C261.45 140.189 260.496 139.274 259.314 139.312C258.17 139.35 257.255 140.341 257.293 141.484Z" fill="#FFB08D"/>
</g>
<path d="M250.277 128.492C251.993 124.606 254.853 121.215 260.077 122.586C263.509 123.501 265.111 126.968 265.759 130.892C262.67 129.635 256.187 127.501 250.277 128.492Z" fill="white"/>
<path d="M265.454 144.608L262.975 153.714" stroke="#25303D" stroke-width="1.6" stroke-miterlimit="10"/>
<path d="M255.12 134.169L254.128 136.912C254.128 136.912 253.404 137.979 252.527 138.017L254.662 138.665" stroke="#25303D" stroke-width="1.6" stroke-linecap="round" stroke-linejoin="round"/>
<path d="M259.162 135.274C259.2 135.54 259.429 135.731 259.696 135.731C259.963 135.731 260.153 135.502 260.153 135.236C260.153 134.969 259.924 134.74 259.657 134.74C259.391 134.778 259.162 135.007 259.162 135.274Z" fill="#25303D"/>
<path d="M251.993 135.045C251.993 135.312 252.222 135.54 252.488 135.502C252.794 135.502 252.984 135.274 252.984 135.007C252.984 134.74 252.755 134.512 252.45 134.512C252.183 134.55 251.993 134.778 251.993 135.045Z" fill="#25303D"/>
<path d="M260.801 132.721L259.085 132.531" stroke="#25303D" stroke-width="1.6" stroke-miterlimit="10"/>
<path d="M253.365 132.226L251.535 132.302" stroke="#25303D" stroke-width="1.6" stroke-miterlimit="10"/>
<path d="M253.175 141.941C253.175 141.941 256.226 143.465 256.111 140.379" stroke="#25303D" stroke-width="1.6" stroke-linecap="round" stroke-linejoin="round"/>
<path d="M116.543 268.929C118.64 256.737 114.56 243.973 104.645 236.201C87.8287 222.942 62.0887 229.724 53.585 249.155C51.7164 253.384 50.8012 257.956 50.8012 262.528C50.8012 265.614 51.2588 268.624 52.0596 271.481C51.869 271.481 51.7546 271.443 51.7927 271.443L52.2122 272.091C53.9663 278.034 54.5764 280.854 60.7159 289.083L82.5282 319.64L104.798 293.389C110.594 286.531 114.98 277.844 116.543 268.929Z" fill="#00B456"/>
<path d="M116.543 268.929C118.64 256.737 114.56 243.973 104.645 236.201" stroke="#25303D" stroke-width="1.6" stroke-miterlimit="10"/>
<path d="M107.048 261.956C107.048 273.424 97.7815 282.683 86.3415 282.683C74.8634 282.683 65.597 273.424 65.597 261.956C65.597 250.526 74.8634 241.23 86.3415 241.23C97.7815 241.23 107.048 250.526 107.048 261.956Z" fill="white"/>
<path d="M58.3898 249.421C58.3898 250.679 57.7415 252.012 57.9322 253.231C58.1228 254.489 59.1524 255.517 59.5338 256.698C59.9151 257.88 59.6863 259.327 60.2583 260.432C60.8303 261.575 62.1268 262.261 62.8895 263.252C63.614 264.28 63.8428 265.728 64.758 266.604C65.6351 267.481 67.0842 267.709 68.0756 268.471C69.1052 269.195 69.7916 270.491 70.8975 271.062C72.0034 271.634 73.4524 271.405 74.6727 271.824C75.8548 272.205 76.8844 273.234 78.1428 273.424C79.3631 273.615 80.6596 272.967 81.918 272.967C83.2146 272.967 84.5111 273.615 85.7314 273.424C86.9898 273.234 88.0194 272.205 89.2015 271.824C90.4218 271.405 91.8708 271.634 92.9767 271.062C94.0826 270.491 94.769 269.195 95.7986 268.471C96.79 267.709 98.2391 267.481 99.1162 266.604C100.031 265.728 100.26 264.28 100.985 263.252C101.709 262.223 103.044 261.575 103.616 260.432C104.188 259.327 103.959 257.88 104.34 256.698C104.722 255.517 105.751 254.489 105.942 253.231C106.133 252.012 105.484 250.679 105.484 249.421C105.484 248.164 106.133 246.831 105.942 245.611C105.751 244.354 104.722 243.325 104.34 242.144C103.959 240.963 104.188 239.477 103.616 238.372C103.044 237.268 101.709 236.582 100.985 235.591C100.26 234.562 100.031 233.115 99.1162 232.238C98.2391 231.362 96.79 231.133 95.7986 230.371C94.769 229.648 94.0826 228.352 92.9767 227.781C91.8708 227.209 90.4218 227.438 89.2015 227.019C88.0194 226.638 86.9898 225.609 85.7314 225.418C84.5111 225.228 83.2146 225.876 81.918 225.876C80.6596 225.876 79.3631 225.228 78.1428 225.418C76.8844 225.609 75.8548 226.638 74.6727 227.019C73.4524 227.438 72.0034 227.209 70.8975 227.781C69.7916 228.352 69.1052 229.648 68.0756 230.371C67.0842 231.133 65.6351 231.362 64.758 232.238C63.8428 233.115 63.614 234.562 62.8895 235.591C62.1268 236.582 60.8303 237.268 60.2583 238.372C59.6863 239.477 59.9151 240.963 59.5338 242.144C59.1524 243.325 58.1228 244.354 57.9322 245.611C57.7415 246.831 58.3898 248.164 58.3898 249.421Z" fill="#25303D"/>
<path d="M95.9893 247.25C95.9893 247.25 101.328 241.192 95.9893 234.829C90.6887 228.466 83.634 234.105 82.4138 237.915C82.4138 237.915 72.461 238.106 70.2493 245.84C68.0375 253.612 74.9778 261.27 77.914 262.642L95.9893 247.25Z" fill="#25303D"/>
<path d="M90.193 240.049C90.193 240.049 96.0655 243.173 99.0018 250.984C99.0018 250.984 105.713 251.669 106.056 258.032C106.362 264.395 100.489 268.014 93.2818 268.662L94.0444 278.035C94.0444 278.035 104.989 290.265 95.5698 294.303C86.6847 298.151 77.2658 287.179 76.1218 280.968L78.181 260.242C78.181 260.242 84.3967 258.337 81.9943 248.621C81.9943 248.621 88.477 245.764 90.193 240.049Z" fill="#C65F41"/>
<path d="M97.1332 258.68H94.0444C94.0444 258.68 94.1207 261.27 95.5698 261.27C97.057 261.309 97.1332 258.68 97.1332 258.68Z" fill="white"/>
<g style="mix-blend-mode:multiply" opacity="0.5">
<path d="M87.9431 258.603C87.9431 260.013 89.0871 261.194 90.5362 261.194C91.9471 261.194 93.0911 260.013 93.0911 258.603C93.0911 257.156 91.9471 256.013 90.5362 256.013C89.0871 256.013 87.9431 257.156 87.9431 258.603Z" fill="#C65F41"/>
</g>
<path d="M91.909 250.145L94.0444 253.765C94.0444 253.765 96.5994 252.965 96.7138 254.336C96.8663 255.746 95.3028 256.127 95.3028 256.127" stroke="#25303D" stroke-width="1.6" stroke-miterlimit="10"/>
<path d="M89.6591 252.812C89.6591 252.812 87.8668 252.203 86.8372 253.993" stroke="#25303D" stroke-width="1.6" stroke-miterlimit="10"/>
<path d="M96.9426 249.726C96.9426 249.726 95.2266 248.964 94.3114 250.755" stroke="#25303D" stroke-width="1.6" stroke-miterlimit="10"/>
<path d="M94.0444 278.034V283.292" stroke="#25303D" stroke-width="1.6" stroke-miterlimit="10"/>
<path d="M72.4991 260.242C71.5839 262.604 72.8423 265.271 75.3591 266.262C77.8378 267.252 80.6215 266.147 81.5367 263.823C82.4519 261.499 81.1935 258.832 78.6767 257.841C76.198 256.851 73.4143 257.918 72.4991 260.242Z" fill="#C65F41"/>
<path d="M77.5327 266.605C78.4479 266.566 79.325 266.262 80.0495 265.766" stroke="#25303D" stroke-width="1.6" stroke-miterlimit="10"/>
<path d="M79.2487 262.452L74.9778 260.089" stroke="#25303D" stroke-width="1.6" stroke-miterlimit="10"/>
<path d="M76.8463 261.118C76.8463 261.118 75.3972 262.947 77.1895 264.166" stroke="#25303D" stroke-width="1.6" stroke-miterlimit="10"/>
<path d="M93.2818 268.662C93.2818 268.662 88.8583 268.967 86.0364 268.243" stroke="#25303D" stroke-width="1.6" stroke-miterlimit="10"/>
<path d="M218.817 301.009C216.681 288.817 220.8 276.091 230.714 268.281C247.531 255.022 273.271 261.804 281.775 281.273C283.605 285.464 284.559 290.036 284.559 294.608C284.559 297.732 284.101 300.704 283.3 303.562C283.491 303.562 283.605 303.562 283.567 303.523L283.148 304.171C281.355 310.153 280.783 312.934 274.644 321.202L252.832 351.72C252.832 351.72 230.562 325.469 230.524 325.469C224.727 318.611 220.38 309.924 218.817 301.009Z" fill="#00B456"/>
<path d="M274.644 321.202L252.832 351.72" stroke="#25303D" stroke-width="1.6" stroke-miterlimit="10"/>
<path d="M229.875 294.684C229.875 306.152 239.18 315.411 250.62 315.411C262.06 315.411 271.364 306.152 271.364 294.684C271.364 283.254 262.06 273.958 250.62 273.958C239.18 273.958 229.875 283.254 229.875 294.684Z" fill="white"/>
<path d="M251.078 296.742H253.289C261.03 296.742 267.322 290.417 267.322 282.721V279.368C267.322 271.672 261.03 265.347 253.289 265.347H251.078C243.336 265.347 237.044 271.672 237.044 279.368V282.721C237.044 290.417 243.336 296.742 251.078 296.742Z" fill="#25303D"/>
<path d="M235.9 281.578C235.9 289.96 242.688 296.742 251.077 296.742C259.467 296.742 266.293 289.96 266.293 281.578C266.293 273.196 259.467 266.376 251.077 266.376C242.688 266.376 235.9 273.196 235.9 281.578Z" fill="#25303D"/>
<path d="M236.053 278.987L234.718 288.626C234.718 288.626 229.799 292.817 233.536 299.751C233.536 299.751 236.206 303.638 240.553 302.914V320.516L240.743 325.355L246.73 325.85L244.595 319.906C244.595 319.906 255.768 326.803 262.098 322.764L257.484 289.655C257.484 289.655 251.764 288.55 252.984 278.987C252.984 278.987 239.523 283.026 236.053 278.987Z" fill="#FEC192"/>
<path d="M240.553 302.914C240.553 302.914 247.264 302.685 251.306 298.723" stroke="#25303D" stroke-width="1.6" stroke-miterlimit="10"/>
<path d="M264.233 288.703C265.263 290.912 264.157 293.579 261.793 294.646C259.429 295.751 256.683 294.837 255.692 292.627C254.662 290.455 255.768 287.788 258.132 286.683C260.496 285.616 263.204 286.531 264.233 288.703Z" fill="#FEC192"/>
<path d="M257.827 291.179L261.831 288.703" stroke="#25303D" stroke-width="1.6" stroke-miterlimit="10"/>
<path d="M260.077 289.769C260.077 289.769 261.564 291.446 259.924 292.741" stroke="#25303D" stroke-width="1.6" stroke-miterlimit="10"/>
<path d="M240.858 286.531L239.599 290.76" stroke="#25303D" stroke-width="1.6" stroke-miterlimit="10"/>
<path d="M240.591 291.37C240.591 291.37 238.76 290.036 237.96 290.76C237.121 291.522 238.722 292.817 238.722 292.817" stroke="#25303D" stroke-width="1.6" stroke-miterlimit="10"/>
<path d="M244.633 286.417C244.824 286.34 245.167 286.264 245.663 286.531C246.273 286.798 246.349 287.14 246.349 287.14L245.624 287.026C245.675 287.153 245.675 287.28 245.624 287.407C245.472 287.788 245.014 287.979 244.595 287.788C244.213 287.636 244.023 287.217 244.175 286.836C244.252 286.607 244.404 286.493 244.633 286.417Z" fill="#25303D"/>
<path d="M237.731 286.645C237.578 286.493 237.273 286.34 236.739 286.417C236.053 286.531 235.9 286.798 235.9 286.798L236.587 286.912C236.536 287.013 236.511 287.14 236.511 287.293C236.549 287.712 236.93 287.979 237.349 287.941C237.769 287.941 238.112 287.56 238.074 287.179C238.036 286.95 237.921 286.759 237.731 286.645Z" fill="#25303D"/>
<path d="M239.447 295.903C240.019 295.484 240.553 295.865 241.01 295.561C243.26 293.922 245.205 294.494 243.908 296.742C242.459 299.485 236.739 297.961 239.447 295.903Z" fill="white"/>
<path d="M229.456 76.4855C240.934 63.6458 254.776 83.2673 231.553 96.6785C206.08 88.3346 215.537 66.2747 229.456 76.4855Z" fill="#FF7D64"/>
<path d="M231.553 96.6785C206.08 88.3346 215.537 66.2747 229.456 76.4855" stroke="#25303D" stroke-width="1.6" stroke-miterlimit="10"/>
<path d="M229.456 76.4855C233.002 72.5231 236.739 71.6468 239.561 72.7136" stroke="#25303D" stroke-width="1.6" stroke-miterlimit="10"/>
<path d="M56.6357 360.597C54.5002 371.113 44.2423 377.857 33.7557 375.723C23.269 373.589 16.4812 363.379 18.6167 352.901C20.7522 342.424 30.9719 335.642 41.4967 337.775C51.9834 339.909 58.733 350.12 56.6357 360.597Z" fill="#FFC260"/>
<path d="M41.4967 337.775C51.9834 339.909 58.733 350.12 56.6356 360.597" stroke="#25303D" stroke-width="1.6" stroke-miterlimit="10"/>
<path d="M43.3653 354.997C43.0983 356.292 43.9373 357.511 45.1957 357.778C46.4541 358.044 47.7124 357.206 47.9794 355.949C48.2082 354.692 47.4074 353.434 46.149 353.168C44.8525 352.939 43.6322 353.739 43.3653 354.997Z" fill="#25303D"/>
<path d="M27.4636 351.796C27.2348 353.053 28.0356 354.273 29.294 354.539C30.5906 354.806 31.8108 353.968 32.0778 352.711C32.3447 351.453 31.5058 350.196 30.2474 349.967C28.989 349.701 27.7306 350.501 27.4636 351.796Z" fill="#25303D"/>
<path d="M22.697 354.92C22.5444 355.835 23.1164 356.711 24.0316 356.902C24.9468 357.092 25.8239 356.521 26.0146 355.606C26.1671 354.692 25.5951 353.815 24.6799 353.625C23.7647 353.434 22.8876 354.044 22.697 354.92Z" fill="#FF7D64"/>
<path d="M47.8268 360.026C47.6362 360.94 48.2463 361.816 49.1615 362.007C50.0386 362.197 50.9538 361.626 51.1063 360.712C51.297 359.797 50.725 358.921 49.8098 358.73C48.8946 358.54 48.0175 359.149 47.8268 360.026Z" fill="#FF7D64"/>
<path d="M127.792 39.4904L136.144 52.9397L157.003 20.4404L127.792 39.4904Z" fill="#00CA6E"/>
<path d="M126.076 36.5567L118.412 22.6883L157.003 20.4404L126.076 36.5567Z" fill="#00CA6E"/>
<path d="M118.412 22.6883L157.003 20.4404L136.144 52.9397L127.792 39.4904L140.491 31.2608" stroke="#25303D" stroke-width="1.6" stroke-miterlimit="10"/>
<path d="M29.0653 2C28.3789 9.3533 30.5906 17.3924 36.4631 21.8501C41.1535 25.4315 47.4836 26.2316 53.3562 25.5839C60.6015 24.8219 68.1138 21.6596 71.6602 15.335C72.461 13.8491 72.9567 11.7917 71.6983 10.6868C69.9061 9.0104 67.0842 11.4869 66.474 13.8872C64.5674 21.2786 70.3255 28.5176 76.6175 32.9372C90.0786 42.3479 108.039 45.053 123.712 39.9857" stroke="#FFC260" stroke-width="4" stroke-linecap="round" stroke-linejoin="round"/>
<path d="M191.284 83.4959C190.674 83.3054 190.217 82.772 190.064 82.1624L188.958 77.0951L187.852 82.1624C187.738 82.772 187.28 83.3054 186.632 83.4959L183.429 84.4865L186.632 85.5152C187.28 85.7057 187.738 86.201 187.852 86.8487L188.958 91.916L190.064 86.8487C190.217 86.201 190.674 85.7057 191.284 85.5152L194.526 84.4865L191.284 83.4959Z" fill="#8881ED"/>
<path d="M112.959 324.936C112.387 324.783 111.967 324.326 111.853 323.754L110.861 319.182L109.87 323.754C109.755 324.326 109.336 324.783 108.764 324.936L105.866 325.85L108.764 326.764C109.336 326.955 109.755 327.412 109.87 327.984L110.861 332.517L111.853 327.984C111.967 327.412 112.387 326.955 112.959 326.764L115.857 325.85L112.959 324.936Z" fill="#8881ED"/>
<path d="M269.458 235.286C268.886 235.096 268.466 234.639 268.352 234.067L267.322 229.419L266.331 234.067C266.216 234.639 265.759 235.096 265.225 235.286L262.251 236.201L265.225 237.115C265.759 237.306 266.216 237.763 266.331 238.334L267.322 242.982L268.352 238.334C268.466 237.763 268.886 237.306 269.458 237.115L272.432 236.201L269.458 235.286Z" fill="#8881ED"/>
</svg>
