<svg width="24" height="23" viewBox="0 0 24 23" fill="none" xmlns="http://www.w3.org/2000/svg">
<path d="M17 6C17.7956 6 18.5587 6.31607 19.1213 6.87868C19.6839 7.44129 20 8.20435 20 9V17C20 17.7956 19.6839 18.5587 19.1213 19.1213C18.5587 19.6839 17.7956 20 17 20H8C7.20435 20 6.44129 19.6839 5.87868 19.1213C5.31607 18.5587 5 17.7956 5 17V9C5 8.20435 5.31607 7.44129 5.87868 6.87868C6.44129 6.31607 7.20435 6 8 6V4.5C8 2 10 0 12.5 0C15 0 17 2 17 4.5V6ZM8 7C7.46957 7 6.96086 7.21071 6.58579 7.58579C6.21071 7.96086 6 8.46957 6 9V17C6 17.5304 6.21071 18.0391 6.58579 18.4142C6.96086 18.7893 7.46957 19 8 19H17C17.5304 19 18.0391 18.7893 18.4142 18.4142C18.7893 18.0391 19 17.5304 19 17V9C19 8.46957 18.7893 7.96086 18.4142 7.58579C18.0391 7.21071 17.5304 7 17 7H8ZM16 6V4.5C16 3.57174 15.6313 2.6815 14.9749 2.02513C14.3185 1.36875 13.4283 1 12.5 1C11.5717 1 10.6815 1.36875 10.0251 2.02513C9.36875 2.6815 9 3.57174 9 4.5V6H16ZM12.5 12C12.1022 12 11.7206 12.158 11.4393 12.4393C11.158 12.7206 11 13.1022 11 13.5C11 13.8978 11.158 14.2794 11.4393 14.5607C11.7206 14.842 12.1022 15 12.5 15C12.8978 15 13.2794 14.842 13.5607 14.5607C13.842 14.2794 14 13.8978 14 13.5C14 13.1022 13.842 12.7206 13.5607 12.4393C13.2794 12.158 12.8978 12 12.5 12ZM12.5 11C13.163 11 13.7989 11.2634 14.2678 11.7322C14.7366 12.2011 15 12.837 15 13.5C15 14.163 14.7366 14.7989 14.2678 15.2678C13.7989 15.7366 13.163 16 12.5 16C11.837 16 11.2011 15.7366 10.7322 15.2678C10.2634 14.7989 10 14.163 10 13.5C10 12.837 10.2634 12.2011 10.7322 11.7322C11.2011 11.2634 11.837 11 12.5 11Z" fill="white"/>
</svg>
