<svg width="24" height="23" viewBox="0 0 24 23" fill="none" xmlns="http://www.w3.org/2000/svg">
<path d="M3.25 10.125C3.25 9.2962 3.57924 8.50134 4.16529 7.91529C4.75134 7.32924 5.5462 7 6.375 7H17.625C18.4538 7 19.2487 7.32924 19.8347 7.91529C20.4208 8.50134 20.75 9.2962 20.75 10.125V12.625C20.75 13.4538 20.4208 14.2487 19.8347 14.8347C19.2487 15.4208 18.4538 15.75 17.625 15.75H6.375C5.5462 15.75 4.75134 15.4208 4.16529 14.8347C3.57924 14.2487 3.25 13.4538 3.25 12.625V10.125ZM6.375 8.25C5.87772 8.25 5.40081 8.44754 5.04917 8.79917C4.69754 9.15081 4.5 9.62772 4.5 10.125V12.625C4.5 13.1223 4.69754 13.5992 5.04917 13.9508C5.40081 14.3025 5.87772 14.5 6.375 14.5H17.625C18.1223 14.5 18.5992 14.3025 18.9508 13.9508C19.3025 13.5992 19.5 13.1223 19.5 12.625V10.125C19.5 9.62772 19.3025 9.15081 18.9508 8.79917C18.5992 8.44754 18.1223 8.25 17.625 8.25H6.375ZM14.5 10.75C14.5 11.0815 14.3683 11.3995 14.1339 11.6339C13.8995 11.8683 13.5815 12 13.25 12C12.9185 12 12.6005 11.8683 12.3661 11.6339C12.1317 11.3995 12 11.0815 12 10.75C12 10.4185 12.1317 10.1005 12.3661 9.86612C12.6005 9.6317 12.9185 9.5 13.25 9.5C13.5815 9.5 13.8995 9.6317 14.1339 9.86612C14.3683 10.1005 14.5 10.4185 14.5 10.75ZM17 12C17.3315 12 17.6495 11.8683 17.8839 11.6339C18.1183 11.3995 18.25 11.0815 18.25 10.75C18.25 10.4185 18.1183 10.1005 17.8839 9.86612C17.6495 9.6317 17.3315 9.5 17 9.5C16.6685 9.5 16.3505 9.6317 16.1161 9.86612C15.8817 10.1005 15.75 10.4185 15.75 10.75C15.75 11.0815 15.8817 11.3995 16.1161 11.6339C16.3505 11.8683 16.6685 12 17 12Z" fill="white"/>
</svg>
