<svg width="24" height="24" viewBox="0 0 24 24" fill="none" xmlns="http://www.w3.org/2000/svg">
<path fill-rule="evenodd" clip-rule="evenodd" d="M15.125 6.90625C15.125 7.60244 14.8484 8.27012 14.3562 8.76241C13.8639 9.25469 13.1962 9.53125 12.5 9.53125C11.8038 9.53125 11.1361 9.25469 10.6438 8.76241C10.1516 8.27012 9.875 7.60244 9.875 6.90625C9.875 6.21006 10.1516 5.54238 10.6438 5.05009C11.1361 4.55781 11.8038 4.28125 12.5 4.28125C13.1962 4.28125 13.8639 4.55781 14.3562 5.05009C14.8484 5.54238 15.125 6.21006 15.125 6.90625ZM17.0938 6.90625C17.0938 8.12459 16.6098 9.29303 15.7483 10.1545C14.8868 11.016 13.7183 11.5 12.5 11.5C11.2817 11.5 10.1132 11.016 9.25173 10.1545C8.39023 9.29303 7.90625 8.12459 7.90625 6.90625C7.90625 5.68791 8.39023 4.51947 9.25173 3.65798C10.1132 2.79648 11.2817 2.3125 12.5 2.3125C13.7183 2.3125 14.8868 2.79648 15.7483 3.65798C16.6098 4.51947 17.0938 5.68791 17.0938 6.90625ZM5.28125 17.4062C5.28125 17.1385 5.57 16.3444 7.01375 15.4913C8.34987 14.7025 10.295 14.125 12.5 14.125C14.705 14.125 16.6501 14.7025 17.9862 15.4913C19.43 16.3444 19.7188 17.1385 19.7188 17.4062C19.7188 17.7543 19.5805 18.0882 19.3343 18.3343C19.0882 18.5805 18.7543 18.7188 18.4062 18.7188H6.59375C6.24565 18.7188 5.91181 18.5805 5.66567 18.3343C5.41953 18.0882 5.28125 17.7543 5.28125 17.4062ZM12.5 12.1562C7.44688 12.1562 3.3125 14.7812 3.3125 17.4062C3.3125 18.2765 3.6582 19.1111 4.27356 19.7264C4.88891 20.3418 5.72351 20.6875 6.59375 20.6875H18.4062C19.2765 20.6875 20.1111 20.3418 20.7264 19.7264C21.3418 19.1111 21.6875 18.2765 21.6875 17.4062C21.6875 14.7812 17.5531 12.1562 12.5 12.1562Z" fill="white"/>
</svg>
