<svg width="33" height="33" viewBox="0 0 33 33" fill="none" xmlns="http://www.w3.org/2000/svg">
<path d="M20.1988 9.22619C20.3262 9.3534 20.4274 9.50449 20.4964 9.67083C20.5654 9.83717 20.6009 10.0155 20.6009 10.1956C20.6009 10.3756 20.5654 10.554 20.4964 10.7203C20.4274 10.8866 20.3262 11.0377 20.1988 11.1649L14.8638 16.4999L20.1988 21.8349C20.4559 22.092 20.6003 22.4407 20.6003 22.8043C20.6003 23.1679 20.4559 23.5166 20.1988 23.7737C19.9417 24.0308 19.593 24.1752 19.2294 24.1752C18.8658 24.1752 18.5171 24.0308 18.26 23.7737L11.9488 17.4624C11.8213 17.3352 11.7202 17.1841 11.6512 17.0178C11.5822 16.8515 11.5467 16.6731 11.5467 16.4931C11.5467 16.313 11.5822 16.1347 11.6512 15.9683C11.7202 15.802 11.8213 15.6509 11.9488 15.5237L18.26 9.21244C18.7825 8.68994 19.6625 8.68994 20.1988 9.22619Z" fill="#00B456"/>
</svg>
