<svg width="12" height="7" viewBox="0 0 12 7" fill="none" xmlns="http://www.w3.org/2000/svg">
<path d="M10.872 0.499994C10.7795 0.407291 10.6696 0.333743 10.5486 0.283562C10.4277 0.23338 10.298 0.20755 10.167 0.20755C10.036 0.20755 9.90636 0.23338 9.78539 0.283562C9.66441 0.333743 9.55452 0.407291 9.46201 0.499994L5.58201 4.37999L1.70201 0.499994C1.51503 0.313017 1.26144 0.207973 0.99701 0.207973C0.732584 0.207973 0.478986 0.313017 0.292008 0.499994C0.105031 0.686972 -1.04904e-05 0.940568 -1.04904e-05 1.20499C-1.04904e-05 1.46942 0.105031 1.72302 0.292008 1.90999L4.88201 6.49999C4.97452 6.5927 5.08441 6.66625 5.20539 6.71643C5.32636 6.76661 5.45604 6.79244 5.58701 6.79244C5.71798 6.79244 5.84766 6.76661 5.96863 6.71643C6.08961 6.66625 6.1995 6.5927 6.29201 6.49999L10.882 1.90999C11.262 1.52999 11.262 0.889994 10.872 0.499994Z" fill="#00B456"/>
</svg>
