<svg width="13" height="21" viewBox="0 0 13 21" fill="none" xmlns="http://www.w3.org/2000/svg">
<path d="M1.04864 0.905886C0.880506 1.07367 0.747118 1.27297 0.656107 1.49237C0.565096 1.71177 0.51825 1.94697 0.51825 2.1845C0.51825 2.42203 0.565096 2.65723 0.656107 2.87663C0.747118 3.09603 0.880506 3.29533 1.04864 3.46311L8.08554 10.5L1.04864 17.5369C0.709528 17.876 0.519017 18.336 0.519017 18.8155C0.519017 19.2951 0.709528 19.7551 1.04864 20.0942C1.38775 20.4333 1.84768 20.6238 2.32725 20.6238C2.80682 20.6238 3.26675 20.4333 3.60586 20.0942L11.9305 11.7696C12.0986 11.6018 12.232 11.4025 12.323 11.1831C12.414 10.9637 12.4608 10.7285 12.4608 10.491C12.4608 10.2534 12.414 10.0182 12.323 9.79883C12.232 9.57942 12.0986 9.38013 11.9305 9.21234L3.60586 0.887749C2.91668 0.198567 1.75596 0.198568 1.04864 0.905886Z" fill="white"/>
</svg>
