<svg width="22" height="22" viewBox="0 0 22 22" fill="none" xmlns="http://www.w3.org/2000/svg">
<path d="M7.12564 18.2858C8.3181 18.921 9.64889 19.2522 11 19.2499C15.5563 19.2499 19.25 15.5562 19.25 10.9999C19.25 6.4435 15.5563 2.74986 11 2.74986C6.44363 2.74986 2.74999 6.4435 2.74999 10.9999C2.74999 12.4024 3.09964 13.7216 3.71564 14.8766C3.85936 15.1456 3.89315 15.46 3.80992 15.7534L2.84035 19.1611L6.24878 18.1923C6.54215 18.1088 6.85646 18.1423 7.12564 18.2858ZM11 20.4284C9.45537 20.4306 7.93406 20.0517 6.57092 19.3253L2.82306 20.3915C2.65482 20.4393 2.47687 20.4413 2.3076 20.3973C2.13833 20.3533 1.98387 20.2649 1.8602 20.1412C1.73653 20.0175 1.64813 19.8631 1.60413 19.6938C1.56013 19.5246 1.56213 19.3466 1.60992 19.1784L2.67535 15.4305C1.9484 14.067 1.56921 12.5451 1.57142 10.9999C1.57142 5.79293 5.79306 1.57129 11 1.57129C16.2069 1.57129 20.4286 5.79293 20.4286 10.9999C20.4286 16.2068 16.2069 20.4284 11 20.4284ZM7.46428 9.232C7.46428 9.07572 7.52636 8.92583 7.63688 8.81532C7.74739 8.7048 7.89728 8.64272 8.05356 8.64272H13.9464C14.1027 8.64272 14.2526 8.7048 14.3631 8.81532C14.4736 8.92583 14.5357 9.07572 14.5357 9.232C14.5357 9.38829 14.4736 9.53818 14.3631 9.64869C14.2526 9.7592 14.1027 9.82129 13.9464 9.82129H8.05356C7.89728 9.82129 7.74739 9.7592 7.63688 9.64869C7.52636 9.53818 7.46428 9.38829 7.46428 9.232ZM7.46428 12.7677C7.46428 12.6114 7.52636 12.4615 7.63688 12.351C7.74739 12.2405 7.89728 12.1784 8.05356 12.1784H11.5893C11.7456 12.1784 11.8955 12.2405 12.006 12.351C12.1165 12.4615 12.1786 12.6114 12.1786 12.7677C12.1786 12.924 12.1165 13.0739 12.006 13.1844C11.8955 13.2949 11.7456 13.357 11.5893 13.357H8.05356C7.89728 13.357 7.74739 13.2949 7.63688 13.1844C7.52636 13.0739 7.46428 12.924 7.46428 12.7677Z" fill="#25303D"/>
</svg>
