<svg width="27" height="27" viewBox="0 0 27 27" fill="none" xmlns="http://www.w3.org/2000/svg">
<path d="M6.318 22.5C5.79975 22.5 5.36737 22.3267 5.02087 21.9802C4.67437 21.6338 4.50075 21.201 4.5 20.682V14.625H5.625V20.6831C5.625 20.8556 5.697 21.0142 5.841 21.159C5.985 21.3038 6.14362 21.3757 6.31687 21.375H12.375V22.5H6.318ZM14.625 22.5V21.375H20.6831C20.8556 21.375 21.0142 21.303 21.159 21.159C21.3038 21.015 21.3757 20.856 21.375 20.682V14.625H22.5V20.6831C22.5 21.2006 22.3267 21.6326 21.9802 21.9791C21.6338 22.3256 21.201 22.4993 20.682 22.5H14.625ZM8.4375 18.5625L10.6447 15.6634L12.6135 18.0439L15.5554 14.3224L18.7357 18.5625H8.4375ZM4.5 12.375V6.318C4.5 5.79975 4.67362 5.36737 5.02087 5.02087C5.36812 4.67437 5.8005 4.50075 6.318 4.5H12.375V5.625H6.318C6.14475 5.625 5.98575 5.697 5.841 5.841C5.69625 5.985 5.62425 6.144 5.625 6.318V12.375H4.5ZM21.375 12.375V6.318C21.375 6.14475 21.303 5.98575 21.159 5.841C21.015 5.69625 20.856 5.62425 20.682 5.625H14.625V4.5H20.6831C21.2006 4.5 21.6326 4.67362 21.9791 5.02087C22.3256 5.36812 22.4993 5.8005 22.5 6.318V12.375H21.375ZM17.2215 11.034C16.8637 11.034 16.5653 10.914 16.326 10.674C16.0868 10.434 15.9668 10.1355 15.966 9.7785C15.9653 9.4215 16.0852 9.123 16.326 8.883C16.5668 8.643 16.8652 8.52338 17.2215 8.52413C17.5777 8.52488 17.8763 8.64488 18.117 8.88412C18.3577 9.12337 18.4774 9.4215 18.4759 9.7785C18.4744 10.1355 18.3544 10.434 18.1159 10.674C17.8774 10.914 17.5792 11.034 17.2215 11.034Z" fill="#25303D"/>
</svg>
