<svg width="24" height="24" viewBox="0 0 24 24" fill="none" xmlns="http://www.w3.org/2000/svg">
<path d="M8 4V2M16 4V2M12 22C7.993 22 5.99 22 4.745 20.682C3.5 19.364 3.5 17.242 3.5 13C3.5 8.758 3.5 6.636 4.745 5.318C5.99 4 7.993 4 12 4C16.007 4 18.01 4 19.255 5.318C20.5 6.636 20.5 8.758 20.5 13C20.5 17.242 20.5 19.364 19.255 20.682C18.01 22 16.007 22 12 22Z" stroke="#00B456" stroke-linecap="round" stroke-linejoin="round"/>
<path d="M14.0178 9.49316C14.0178 10.0236 13.8071 10.5323 13.432 10.9074C13.057 11.2824 12.5483 11.4932 12.0178 11.4932C11.4874 11.4932 10.9787 11.2824 10.6036 10.9074C10.2285 10.5323 10.0178 10.0236 10.0178 9.49316C10.0178 8.96273 10.2285 8.45402 10.6036 8.07895C10.9787 7.70388 11.4874 7.49316 12.0178 7.49316C12.5483 7.49316 13.057 7.70388 13.432 8.07895C13.8071 8.45402 14.0178 8.96273 14.0178 9.49316ZM8.06283 16.7162C9.12083 15.0862 10.8018 14.4762 12.0178 14.4772C13.2338 14.4782 14.8658 15.0872 15.9238 16.7172C15.9918 16.8222 16.0108 16.9512 15.9488 17.0612C15.7018 17.5002 14.9328 18.3712 14.3788 18.4302C13.7408 18.4972 12.0718 18.5072 12.0188 18.5072C11.9658 18.5072 10.2468 18.4972 9.60883 18.4302C9.05283 18.3702 8.28483 17.5002 8.03683 17.0602C7.97583 16.9512 7.99483 16.8222 8.06283 16.7162Z" stroke="#00B456" stroke-linecap="round" stroke-linejoin="round"/>
</svg>
