<svg width="37" height="37" viewBox="0 0 37 37" fill="none" xmlns="http://www.w3.org/2000/svg">
<circle cx="18.5" cy="18.5" r="18.5" fill="white"/>
<path d="M23.7338 8.30255C24.1022 7.93413 24.5395 7.64188 25.0208 7.44247C25.5021 7.24307 26.018 7.14042 26.539 7.14038C27.06 7.14034 27.5759 7.24292 28.0572 7.44226C28.5385 7.64159 28.9759 7.93378 29.3443 8.30214C29.7127 8.6705 30.005 9.10782 30.2044 9.58913C30.4038 10.0704 30.5064 10.5863 30.5065 11.1073C30.5065 11.6283 30.4039 12.1441 30.2046 12.6255C30.0053 13.1068 29.7131 13.5442 29.3447 13.9126L28.6128 14.6437L23.0028 9.03362L23.7338 8.30255ZM21.8554 10.1818L9.70225 22.3366C9.29305 22.7455 9.01072 23.264 8.88922 23.8296L7.80762 28.8765C7.7791 29.009 7.78424 29.1466 7.82258 29.2767C7.86093 29.4067 7.93124 29.5251 8.02711 29.6209C8.12298 29.7168 8.24135 29.7871 8.37139 29.8255C8.50144 29.8638 8.63902 29.869 8.77157 29.8404L13.8185 28.7588C14.3841 28.6373 14.9025 28.355 15.3115 27.9458L27.4663 15.791L21.8554 10.1818Z" fill="#00B456"/>
</svg>
