<svg width="24" height="24" viewBox="0 0 24 24" fill="none" xmlns="http://www.w3.org/2000/svg">
<path d="M17.8078 14.772C18.2586 14.4641 18.7848 14.2851 19.3299 14.2541C19.8749 14.2232 20.4181 14.3416 20.9008 14.5966C21.3835 14.8515 21.7875 15.2333 22.0693 15.7009C22.351 16.1685 22.4999 16.7041 22.4998 17.25C22.4998 17.3307 22.4964 17.411 22.4898 17.491C21.2899 17.9102 20.0155 18.0733 18.7488 17.97C18.7449 16.8366 18.4185 15.7267 17.8078 14.772ZM17.8078 14.772C17.2653 13.9221 16.5175 13.2226 15.6333 12.7381C14.749 12.2536 13.757 11.9998 12.7488 12C11.7407 11.9999 10.7489 12.2539 9.86483 12.7384C8.98081 13.2228 8.23311 13.9222 7.69076 14.772M18.7478 17.969L18.7488 18C18.7488 18.2247 18.7364 18.4467 18.7118 18.666C16.8972 19.7073 14.8409 20.2535 12.7488 20.25C10.5788 20.25 8.54176 19.674 6.78576 18.666C6.75992 18.4346 6.74756 18.2019 6.74876 17.969M6.74876 17.969C5.4824 18.0758 4.20877 17.9133 3.00976 17.492C2.96412 16.9276 3.07916 16.3617 3.34159 15.8599C3.60403 15.3581 4.00313 14.9408 4.49277 14.6563C4.9824 14.3718 5.54256 14.2317 6.10848 14.2521C6.67441 14.2726 7.22297 14.4528 7.69076 14.772M6.74876 17.969C6.7523 16.8357 7.08034 15.7268 7.69076 14.772M15.7488 6C15.7488 6.79565 15.4327 7.55871 14.8701 8.12132C14.3075 8.68393 13.5444 9 12.7488 9C11.9531 9 11.1901 8.68393 10.6274 8.12132C10.0648 7.55871 9.74876 6.79565 9.74876 6C9.74876 5.20435 10.0648 4.44129 10.6274 3.87868C11.1901 3.31607 11.9531 3 12.7488 3C13.5444 3 14.3075 3.31607 14.8701 3.87868C15.4327 4.44129 15.7488 5.20435 15.7488 6ZM21.7488 9C21.7488 9.29547 21.6906 9.58806 21.5775 9.86104C21.4644 10.134 21.2987 10.3821 21.0898 10.591C20.8808 10.7999 20.6328 10.9657 20.3598 11.0787C20.0868 11.1918 19.7942 11.25 19.4988 11.25C19.2033 11.25 18.9107 11.1918 18.6377 11.0787C18.3647 10.9657 18.1167 10.7999 17.9078 10.591C17.6988 10.3821 17.5331 10.134 17.42 9.86104C17.307 9.58806 17.2488 9.29547 17.2488 9C17.2488 8.40326 17.4858 7.83097 17.9078 7.40901C18.3297 6.98705 18.902 6.75 19.4988 6.75C20.0955 6.75 20.6678 6.98705 21.0898 7.40901C21.5117 7.83097 21.7488 8.40326 21.7488 9ZM8.24876 9C8.24876 9.29547 8.19057 9.58806 8.07749 9.86104C7.96442 10.134 7.79869 10.3821 7.58975 10.591C7.38082 10.7999 7.13278 10.9657 6.8598 11.0787C6.58682 11.1918 6.29424 11.25 5.99876 11.25C5.70329 11.25 5.41071 11.1918 5.13773 11.0787C4.86474 10.9657 4.61671 10.7999 4.40777 10.591C4.19884 10.3821 4.03311 10.134 3.92004 9.86104C3.80696 9.58806 3.74876 9.29547 3.74876 9C3.74876 8.40326 3.98582 7.83097 4.40777 7.40901C4.82973 6.98705 5.40203 6.75 5.99876 6.75C6.5955 6.75 7.1678 6.98705 7.58975 7.40901C8.01171 7.83097 8.24876 8.40326 8.24876 9Z" stroke="#00B456" stroke-width="1.5" stroke-linecap="round" stroke-linejoin="round"/>
</svg>
