<svg width="256" height="251" viewBox="0 0 256 251" fill="none" xmlns="http://www.w3.org/2000/svg">
<path d="M101.865 88.7992L15.6953 0.552734L159.312 88.7992H101.865Z" fill="#00AA5B"/>
<path d="M153.43 159.05L243.061 249.373L96.3294 162.438L153.43 159.05Z" fill="#00AA5B"/>
<path d="M0.0654297 124.053C0.0654297 165.666 29.5026 199.426 65.8976 199.426L192.477 199.63L153.585 158.935L65.9868 158.833C57.5125 158.833 49.9302 154.957 44.3996 148.634C38.8689 142.208 35.39 133.539 35.39 123.849C35.4792 104.573 49.1273 88.8657 65.9868 88.9676H86.682L50.287 50.8223C40.9206 53.4741 32.2679 58.3697 24.9532 65.1013C22.9907 66.8692 21.1472 68.739 19.4226 70.7109C7.46932 84.378 0.0654297 103.247 0.0654297 124.053Z" fill="#00AA5B"/>
<path fill-rule="evenodd" clip-rule="evenodd" d="M101.916 127.886C98.947 127.886 96.4902 125.429 96.4902 122.358C96.4902 119.389 98.947 116.933 101.916 116.933C104.987 116.933 107.443 119.389 107.443 122.358C107.443 125.429 104.987 127.886 101.916 127.886Z" fill="#00AA5B"/>
<path fill-rule="evenodd" clip-rule="evenodd" d="M127.916 127.886C124.845 127.886 122.389 125.429 122.389 122.358C122.389 119.389 124.845 116.933 127.916 116.933C130.885 116.933 133.342 119.389 133.342 122.358C133.342 125.429 130.885 127.886 127.916 127.886Z" fill="#00AA5B"/>
<path fill-rule="evenodd" clip-rule="evenodd" d="M153.815 127.886C150.744 127.886 148.287 125.429 148.287 122.358C148.287 119.389 150.744 116.933 153.815 116.933C156.784 116.933 159.24 119.389 159.24 122.358C159.24 125.429 156.784 127.886 153.815 127.886Z" fill="#00AA5B"/>
<path d="M255.461 123.53C255.461 81.8597 225.934 48.0537 189.539 48.0537H63.0488L101.942 88.7026H189.539C198.014 88.7026 205.596 92.6858 211.127 99.0181C216.657 105.35 220.136 114.032 220.136 123.734C220.136 143.037 206.399 158.766 189.539 158.766H168.844L205.328 196.862C214.695 194.206 223.258 189.304 230.662 182.563C232.565 180.793 234.409 178.92 236.193 176.946C248.057 163.26 255.461 144.365 255.461 123.53Z" fill="#00AA5B"/>
</svg>
