<svg width="350" height="66" viewBox="0 0 350 66" fill="none" xmlns="http://www.w3.org/2000/svg">
<path fill-rule="evenodd" clip-rule="evenodd" d="M40.0251 52.7277L52.0019 65.5239H41.5605L32.7571 56.0035C30.505 56.6177 28.1506 56.9249 25.5915 56.9249C11.465 56.9249 0 46.2784 0 31.2301C0 16.1818 11.465 5.6377 25.5915 5.6377C39.9227 5.6377 51.2853 16.1818 51.2853 31.2301C51.2853 40.6481 46.8836 48.3258 40.0251 52.7277ZM25.5915 49.759C35.6233 49.759 42.7889 42.4907 42.7889 31.2301C42.7889 19.8671 35.6233 12.8036 25.5915 12.8036C15.662 12.8036 8.49637 19.8671 8.49637 31.2301C8.49637 42.4907 15.662 49.759 25.5915 49.759Z" fill="#00AA5B"/>
<path d="M89.9707 55.3872H81.7815V50.5758C79.2223 53.954 74.7182 55.8991 70.0094 55.8991C60.6941 55.8991 53.6309 50.064 53.6309 39.0081V15.5654H61.8201V37.7796C61.8201 45.0479 65.8124 48.8355 71.7496 48.8355C77.7892 48.8355 81.7815 45.0479 81.7815 37.7796V15.5654H89.9707V55.3872Z" fill="#00AA5B"/>
<path d="M91.3613 5.32144C91.3613 2.45509 93.6134 0.100586 96.582 0.100586C99.4482 0.100586 101.803 2.45509 101.803 5.32144C101.803 8.29016 99.4482 10.6447 96.582 10.6447C93.6134 10.6447 91.3613 8.29016 91.3613 5.32144ZM92.385 15.8655H100.677V55.6873H92.385V15.8655Z" fill="#00AA5B"/>
<path d="M103.127 5.32144C103.127 2.45509 105.379 0.100586 108.348 0.100586C111.214 0.100586 113.568 2.45509 113.568 5.32144C113.568 8.29016 111.214 10.6447 108.348 10.6447C105.379 10.6447 103.127 8.29016 103.127 5.32144ZM104.151 15.8655H112.442V55.6873H104.151V15.8655Z" fill="#00AA5B"/>
<path d="M134.343 14.6348C144.068 14.6348 150.415 19.4461 152.667 27.8404H143.761C142.43 24.0528 139.257 21.5959 134.343 21.5959C127.689 21.5959 123.288 26.5096 123.288 35.1087C123.288 43.9125 127.689 48.7238 134.343 48.7238C139.257 48.7238 142.328 46.5741 143.761 42.4793H152.667C150.415 50.2594 144.068 55.6849 134.343 55.6849C122.98 55.6849 114.894 47.5978 114.894 35.1087C114.894 22.722 122.98 14.6348 134.343 14.6348Z" fill="#00AA5B"/>
<path d="M154.345 2.17676H162.636V33.1947L177.07 15.7919H188.433L170.109 35.754L188.433 55.6137H177.377L162.636 38.518V55.6137H154.345V2.17676Z" fill="#00AA5B"/>
<path d="M222.362 4.61133C232.803 4.61133 241.811 9.83216 245.599 19.6596H235.772C233.11 14.3364 228.299 11.7772 222.362 11.7772C212.33 11.7772 205.164 18.8407 205.164 30.2037C205.164 41.4644 212.33 48.6302 222.362 48.6302C228.299 48.6302 233.11 46.1734 235.772 40.7478H245.599C241.811 50.5753 232.803 55.7961 222.362 55.7961C208.235 55.7961 196.668 45.2521 196.668 30.2037C196.668 15.1554 208.235 4.61133 222.362 4.61133Z" fill="#00AA5B"/>
<path d="M247.09 2.17676H255.381V20.3985C258.043 17.1227 262.547 15.1777 267.665 15.1777C276.571 15.1777 283.532 21.0127 283.532 32.171V55.6137H275.343V33.3995C275.343 26.0289 271.351 22.3436 265.413 22.3436C259.271 22.3436 255.381 26.0289 255.381 33.3995V55.6137H247.09V2.17676Z" fill="#00AA5B"/>
<path fill-rule="evenodd" clip-rule="evenodd" d="M303.89 15.3271C310.646 15.3271 315.253 18.5006 317.71 21.7764V15.9413H326.001V55.7631H317.71V49.8257C315.15 53.2039 310.442 56.3773 303.788 56.3773C293.449 56.3773 285.157 47.983 285.157 35.6987C285.157 23.4143 293.449 15.3271 303.89 15.3271ZM305.63 22.493C299.488 22.493 293.551 27.0996 293.551 35.6987C293.551 44.2977 299.488 49.2115 305.63 49.2115C311.875 49.2115 317.71 44.4001 317.71 35.8011C317.71 27.3044 311.875 22.493 305.63 22.493Z" fill="#00AA5B"/>
<path d="M331.983 22.2215H327.377V15.4651H331.983V5.6377H340.275V15.4651H350V22.2215H340.275V44.231C340.275 47.1997 341.503 48.4282 344.984 48.4282H350V55.2869H343.448C336.385 55.2869 331.983 52.3182 331.983 44.231V22.2215Z" fill="#00AA5B"/>
</svg>
