<svg width="23" height="22" viewBox="0 0 23 22" fill="none" xmlns="http://www.w3.org/2000/svg">
<path d="M5.28037 10.3959H8.49062C9.99219 10.3959 10.7085 9.68828 10.7085 8.16083V4.99372C10.7085 3.46627 9.99219 2.75 8.49062 2.75H5.28037C3.7788 2.75 3.06253 3.46627 3.06253 4.99372V8.16083C3.06253 9.68828 3.7788 10.3959 5.28037 10.3959ZM14.1344 10.3959H17.3447C18.8463 10.3959 19.5625 9.68828 19.5625 8.16083V4.99372C19.5625 3.46627 18.8463 2.75 17.3447 2.75H14.1344C12.6329 2.75 11.9166 3.46627 11.9166 4.99372V8.16083C11.9166 9.68828 12.6329 10.3959 14.1344 10.3959ZM5.16818 8.77354C4.83162 8.77354 4.68492 8.6182 4.68492 8.28164V4.86428C4.68492 4.52772 4.83162 4.37238 5.16818 4.37238H8.6028C8.93073 4.37238 9.08607 4.52772 9.08607 4.86428V8.28164C9.08607 8.6182 8.93073 8.77354 8.6028 8.77354H5.16818ZM14.0223 8.77354C13.6857 8.77354 13.539 8.6182 13.539 8.28164V4.86428C13.539 4.52772 13.6857 4.37238 14.0223 4.37238H17.4569C17.7934 4.37238 17.9401 4.52772 17.9401 4.86428V8.28164C17.9401 8.6182 17.7934 8.77354 17.4569 8.77354H14.0223ZM6.05704 7.59127H7.70531C7.84339 7.59127 7.9038 7.53949 7.9038 7.36689V5.7704C7.9038 5.61506 7.84339 5.55465 7.70531 5.55465H6.05704C5.91033 5.55465 5.86719 5.61506 5.86719 5.7704V7.36689C5.86719 7.53949 5.91033 7.59127 6.05704 7.59127ZM14.937 7.59127H16.5853C16.732 7.59127 16.7924 7.53949 16.7924 7.36689V5.7704C16.7924 5.61506 16.732 5.55465 16.5853 5.55465H14.937C14.7989 5.55465 14.7472 5.61506 14.7472 5.7704V7.36689C14.7472 7.53949 14.7989 7.59127 14.937 7.59127ZM5.28037 19.25H8.49062C9.99219 19.25 10.7085 18.5424 10.7085 17.0149V13.8478C10.7085 12.3203 9.99219 11.6041 8.49062 11.6041H5.28037C3.7788 11.6041 3.06253 12.3203 3.06253 13.8478V17.0149C3.06253 18.5424 3.7788 19.25 5.28037 19.25ZM12.5552 14.029H14.2035C14.3502 14.029 14.4106 13.9772 14.4106 13.8047V12.2082C14.4106 12.0528 14.3502 11.9924 14.2035 11.9924H12.5552C12.4171 11.9924 12.3654 12.0528 12.3654 12.2082V13.8047C12.3654 13.9772 12.4171 14.029 12.5552 14.029ZM17.2411 14.029H18.8894C19.0361 14.029 19.0879 13.9772 19.0879 13.8047V12.2082C19.0879 12.0528 19.0361 11.9924 18.8894 11.9924H17.2411C17.1031 11.9924 17.0513 12.0528 17.0513 12.2082V13.8047C17.0513 13.9772 17.1031 14.029 17.2411 14.029ZM5.16818 17.6276C4.83162 17.6276 4.68492 17.4723 4.68492 17.1444V13.727C4.68492 13.3818 4.83162 13.2265 5.16818 13.2265H8.6028C8.93073 13.2265 9.08607 13.3818 9.08607 13.727V17.1444C9.08607 17.4723 8.93073 17.6276 8.6028 17.6276H5.16818ZM14.9197 16.3763H16.568C16.7147 16.3763 16.7751 16.3159 16.7751 16.1519V14.5468C16.7751 14.3915 16.7147 14.3311 16.568 14.3311H14.9197C14.7817 14.3311 14.7299 14.3915 14.7299 14.5468V16.1519C14.7299 16.3159 14.7817 16.3763 14.9197 16.3763ZM6.05704 16.4453H7.70531C7.84339 16.4453 7.9038 16.3936 7.9038 16.221V14.6245C7.9038 14.4691 7.84339 14.4087 7.70531 14.4087H6.05704C5.91033 14.4087 5.86719 14.4691 5.86719 14.6245V16.221C5.86719 16.3936 5.91033 16.4453 6.05704 16.4453ZM12.5552 18.715H14.2035C14.3502 18.715 14.4106 18.6546 14.4106 18.4906V16.8941C14.4106 16.7301 14.3502 16.6783 14.2035 16.6783H12.5552C12.4171 16.6783 12.3654 16.7301 12.3654 16.8941V18.4906C12.3654 18.6546 12.4171 18.715 12.5552 18.715ZM17.2411 18.715H18.8894C19.0361 18.715 19.0879 18.6546 19.0879 18.4906V16.8941C19.0879 16.7301 19.0361 16.6783 18.8894 16.6783H17.2411C17.1031 16.6783 17.0513 16.7301 17.0513 16.8941V18.4906C17.0513 18.6546 17.1031 18.715 17.2411 18.715Z" fill="white"/>
</svg>
