<svg width="23" height="22" viewBox="0 0 23 22" fill="none" xmlns="http://www.w3.org/2000/svg">
<path fill-rule="evenodd" clip-rule="evenodd" d="M20.0291 5.88612C20.7314 4.02612 18.9121 2.2068 17.0521 2.90907L5.46218 7.28506C2.99032 8.21836 3.12875 11.7609 5.66592 12.4985L8.88081 13.433C9.18205 13.5206 9.41758 13.7561 9.50515 14.0574L10.4397 17.2722C11.1773 19.8094 14.7198 19.9478 15.6531 17.476L20.0291 5.88612ZM16.4669 5.08966L6.10977 9.00021C5.28581 9.31132 5.33196 10.4922 6.17768 10.738L9.39257 11.6726C9.42924 11.6832 9.46559 11.6946 9.50159 11.7067L16.4669 5.08966ZM10.9558 12.8539C11.0889 13.0664 11.1938 13.2987 11.2656 13.5456L12.2002 16.7605C12.446 17.6062 13.6269 17.6523 13.938 16.8284L17.9459 6.2134L10.9558 12.8539Z" fill="white"/>
</svg>
