<svg width="24" height="24" viewBox="0 0 24 24" fill="none" xmlns="http://www.w3.org/2000/svg">
<g clip-path="url(#clip0_334_8673)">
<path d="M23 9.66966C22.9368 9.48674 22.822 9.32608 22.6693 9.20716C22.5167 9.08823 22.3328 9.01615 22.14 8.99966L16.45 8.16966L13.9 2.99966C13.8181 2.83059 13.6902 2.688 13.5311 2.58823C13.3719 2.48846 13.1878 2.43555 13 2.43555C12.8121 2.43555 12.6281 2.48846 12.4689 2.58823C12.3097 2.688 12.1819 2.83059 12.1 2.99966L9.54998 8.15966L3.85998 8.99966C3.6749 9.02596 3.5009 9.10362 3.35773 9.22381C3.21455 9.34401 3.10794 9.50193 3.04998 9.67966C2.99692 9.85333 2.99216 10.0382 3.03621 10.2143C3.08025 10.3905 3.17144 10.5514 3.29998 10.6797L7.42998 14.6797L6.42998 20.3597C6.39428 20.5471 6.41297 20.7409 6.48385 20.9181C6.55473 21.0953 6.67483 21.2485 6.82998 21.3597C6.98119 21.4678 7.15955 21.5316 7.34503 21.5439C7.5305 21.5563 7.71575 21.5167 7.87998 21.4297L13 18.7597L18.1 21.4397C18.2403 21.5188 18.3988 21.5602 18.56 21.5597C18.7718 21.5604 18.9784 21.4939 19.15 21.3697C19.3051 21.2585 19.4252 21.1053 19.4961 20.9281C19.567 20.7509 19.5857 20.5571 19.55 20.3697L18.55 14.6897L22.68 10.6897C22.8244 10.5673 22.9311 10.4066 22.9877 10.226C23.0444 10.0455 23.0486 9.85253 23 9.66966ZM16.85 13.6697C16.7327 13.7831 16.645 13.9235 16.5944 14.0786C16.5439 14.2338 16.532 14.3989 16.56 14.5597L17.28 18.7497L13.52 16.7497C13.3753 16.6726 13.2139 16.6323 13.05 16.6323C12.8861 16.6323 12.7247 16.6726 12.58 16.7497L8.81998 18.7497L9.53998 14.5597C9.56791 14.3989 9.55609 14.2338 9.50554 14.0786C9.45499 13.9235 9.36725 13.7831 9.24998 13.6697L6.24998 10.6697L10.46 10.0597C10.622 10.0371 10.776 9.9752 10.9085 9.87931C11.041 9.78342 11.1479 9.65649 11.22 9.50966L13 5.69966L14.88 9.51966C14.952 9.66649 15.059 9.79342 15.1915 9.88931C15.324 9.9852 15.478 10.0471 15.64 10.0697L19.85 10.6797L16.85 13.6697Z" fill="white"/>
</g>
<defs>
<clipPath id="clip0_334_8673">
<rect width="24" height="24" fill="white"/>
</clipPath>
</defs>
</svg>
