<svg width="24" height="24" viewBox="0 0 24 24" fill="none" xmlns="http://www.w3.org/2000/svg">
<g clip-path="url(#clip0_188_27183)">
<g clip-path="url(#clip1_188_27183)">
<g clip-path="url(#clip2_188_27183)">
<g clip-path="url(#clip3_188_27183)">
<path d="M6.56215 9.08301L9.78123 18.7497H8.46906L7.66665 16.333H4.04165L3.23924 18.7497H1.92706L5.14614 9.08301H6.56215ZM7.26072 15.1247L5.85415 10.8955L4.44757 15.1247H7.26072ZM8.02537 5.76009C8.03166 5.50835 8.03481 5.25977 8.03481 5.01432C8.03481 4.76888 8.03481 4.52029 8.03481 4.26855V3.72103C8.03481 3.53852 8.03166 3.35601 8.02537 3.1735C8.02537 3.14204 8.03166 3.10742 8.04425 3.06966C8.0946 3.05707 8.13551 3.05078 8.16697 3.05078C8.43129 3.05707 8.69247 3.06337 8.9505 3.06966C9.20853 3.07595 9.47285 3.0791 9.74347 3.0791H12.3395V2.97526C12.3395 2.78646 12.3364 2.59451 12.3301 2.39941C12.3238 2.20432 12.2986 2.01552 12.2545 1.83301C12.6888 1.83301 13.1199 1.85189 13.5478 1.88965C13.5856 1.89594 13.6234 1.90538 13.6611 1.91797C13.6989 1.93056 13.7209 1.96202 13.7272 2.01237C13.7272 2.05013 13.7178 2.08789 13.6989 2.12565C13.68 2.16341 13.6643 2.20117 13.6517 2.23893C13.6391 2.2704 13.6296 2.3176 13.6234 2.38053C13.6171 2.44347 13.6108 2.5127 13.6045 2.58822C13.5982 2.66374 13.595 2.73296 13.595 2.7959C13.595 2.85883 13.595 2.91233 13.595 2.95638V3.0791H16.3893C16.6536 3.0791 16.9148 3.07595 17.1728 3.06966C17.4309 3.06337 17.6952 3.05707 17.9658 3.05078C18.0099 3.05078 18.0508 3.06022 18.0885 3.0791C18.1074 3.11057 18.1168 3.14204 18.1168 3.1735C18.1105 3.28049 18.1043 3.39062 18.098 3.50391C18.0917 3.61719 18.0885 3.73047 18.0885 3.84375V4.39128C18.0885 4.61784 18.0917 4.8444 18.098 5.07096C18.1043 5.29753 18.1105 5.52724 18.1168 5.76009V5.82617C18.1168 5.85135 18.1074 5.87023 18.0885 5.88281C18.0382 5.8954 17.9973 5.90169 17.9658 5.90169H17.7298C17.6039 5.90169 17.4749 5.90484 17.3428 5.91113C17.2232 5.91113 17.1162 5.90799 17.0218 5.90169C16.9274 5.8954 16.8739 5.88596 16.8613 5.87337C16.8487 5.82302 16.8424 5.7475 16.8424 5.64681C16.8424 5.54612 16.8393 5.43283 16.833 5.30697C16.833 5.09928 16.8361 4.88531 16.8424 4.66504C16.8487 4.44477 16.8519 4.28114 16.8519 4.17415H9.2809V4.54232C9.2809 4.63672 9.28405 4.73427 9.29034 4.83496C9.29664 4.93566 9.29664 5.04264 9.29034 5.15592C9.29034 5.33843 9.2872 5.50206 9.2809 5.64681C9.27461 5.79156 9.26517 5.87337 9.25258 5.89225C9.20224 5.90484 9.16133 5.91113 9.12986 5.91113H8.16697C8.09774 5.91113 8.05684 5.90169 8.04425 5.88281C8.03166 5.86393 8.02537 5.82302 8.02537 5.76009ZM12.0091 11.5091C12.1601 11.5091 12.2734 11.4871 12.3489 11.443C12.4245 11.399 12.4654 11.292 12.4717 11.1221V9.32845H9.46027C9.20853 9.32845 8.95679 9.3316 8.70506 9.33789C8.45332 9.34418 8.20159 9.35048 7.94985 9.35677C7.8995 9.35677 7.86174 9.34733 7.83657 9.32845C7.82398 9.29069 7.81769 9.25608 7.81769 9.22461V8.25228C7.81769 8.2271 7.82713 8.20508 7.84601 8.1862C7.88377 8.17361 7.91838 8.16732 7.94985 8.16732L8.70506 8.1862C8.95679 8.19249 9.20853 8.19564 9.46027 8.19564H12.4717C12.4591 8.03201 12.4528 7.86838 12.4528 7.70475C12.4528 7.54112 12.4339 7.37435 12.3961 7.20443C12.522 7.21701 12.6447 7.22645 12.7643 7.23275C12.8839 7.23904 13.0097 7.25163 13.1419 7.27051H13.1702C13.1765 7.27051 13.1891 7.27365 13.208 7.27995C13.4283 7.12261 13.6391 6.95584 13.8405 6.77962C14.0419 6.60341 14.2433 6.42404 14.4446 6.24154H11.5371C11.2728 6.24154 11.0116 6.24468 10.7536 6.25098C10.4955 6.25727 10.2312 6.26356 9.96059 6.26986C9.91024 6.26986 9.87248 6.26042 9.84731 6.24154C9.83472 6.20378 9.82843 6.16916 9.82843 6.13769V5.24089C9.82843 5.21571 9.83472 5.17795 9.84731 5.1276C9.89766 5.11502 9.93542 5.10872 9.96059 5.10872C10.2249 5.11502 10.4861 5.12131 10.7441 5.1276C11.0022 5.1339 11.2665 5.13704 11.5371 5.13704H15.0582C15.1589 5.13704 15.2533 5.12446 15.3415 5.09928C15.4296 5.07411 15.5082 5.05838 15.5775 5.05208C15.6278 5.05208 15.7002 5.08984 15.7946 5.16536C15.889 5.24089 15.9834 5.32899 16.0778 5.42969C16.1722 5.53038 16.254 5.63108 16.3232 5.73177C16.3924 5.83246 16.4302 5.91113 16.4365 5.96777C16.4365 6.03071 16.4176 6.07791 16.3799 6.10937C16.3421 6.14084 16.2949 6.17231 16.2383 6.20378C16.1502 6.24783 16.0652 6.30447 15.9834 6.3737C15.9016 6.44292 15.8229 6.50901 15.7474 6.57194C15.4201 6.84256 15.0929 7.10373 14.7656 7.35547C14.4383 7.6072 14.0922 7.85265 13.7272 8.0918V8.19564H16.7575C17.0092 8.19564 17.2578 8.19249 17.5032 8.1862C17.7487 8.1799 17.9973 8.17361 18.249 8.16732C18.2931 8.16732 18.334 8.17676 18.3717 8.19564C18.3843 8.24599 18.3906 8.28689 18.3906 8.31836V9.22461C18.3906 9.24978 18.3843 9.28754 18.3717 9.33789C18.3214 9.35048 18.2805 9.35677 18.249 9.35677C17.9973 9.35048 17.7487 9.34418 17.5032 9.33789C17.2578 9.3316 17.0092 9.32845 16.7575 9.32845H13.7272V9.63997C13.7272 9.96723 13.7303 10.2945 13.7366 10.6217C13.7429 10.949 13.7524 11.2763 13.765 11.6035V11.6413C13.765 11.7923 13.7366 11.9434 13.68 12.0944C13.6234 12.2454 13.5321 12.365 13.4062 12.4531C13.3181 12.5161 13.1954 12.5633 13.0381 12.5947C12.8807 12.6262 12.7077 12.6514 12.5189 12.6702C12.3301 12.6891 12.1538 12.6986 11.9902 12.6986C11.8266 12.6986 11.6881 12.7017 11.5749 12.708H11.3955C11.3137 12.708 11.257 12.6891 11.2256 12.6514C11.2067 12.6325 11.1847 12.5821 11.1595 12.5003C11.1343 12.4185 11.1154 12.3619 11.1028 12.3304C11.0588 12.1668 11.0084 12.0157 10.9518 11.8773C10.8952 11.7388 10.8196 11.5941 10.7252 11.443C10.9392 11.4682 11.1532 11.4839 11.3672 11.4902C11.5811 11.4965 11.7951 11.5028 12.0091 11.5091ZM18.1168 14.3411L17.3333 13.5671V15.1247C17.3333 15.4582 17.2704 15.7697 17.1445 16.0592C17.0186 16.3487 16.8456 16.6068 16.6253 16.8333C16.405 17.0599 16.1502 17.233 15.8607 17.3525C15.5712 17.4721 15.2565 17.535 14.9166 17.5413H13.359L14.1331 18.3249L13.2835 19.1745L11.0462 16.9372L13.2835 14.6999L14.1331 15.5495L13.359 16.333H14.9166C15.0866 16.333 15.2439 16.3015 15.3887 16.2386C15.5334 16.1757 15.6593 16.0907 15.7663 15.9837C15.8732 15.8767 15.9614 15.7477 16.0306 15.5967C16.0998 15.4456 16.1313 15.2883 16.125 15.1247V13.5671L15.3415 14.3411L14.4918 13.4915L16.7291 11.2542L18.9665 13.4915L18.1168 14.3411Z" fill="white"/>
</g>
</g>
</g>
</g>
<defs>
<clipPath id="clip0_188_27183">
<rect width="24" height="24" fill="white"/>
</clipPath>
<clipPath id="clip1_188_27183">
<rect width="25.375" height="25.375" fill="white" transform="translate(0.416687 -1.79199)"/>
</clipPath>
<clipPath id="clip2_188_27183">
<rect width="24.1667" height="24.1667" fill="white" transform="translate(0.416687 -0.583008)"/>
</clipPath>
<clipPath id="clip3_188_27183">
<rect width="19.3333" height="19.3333" fill="white" transform="translate(0.416687 0.625)"/>
</clipPath>
</defs>
</svg>
