<svg width="22" height="22" viewBox="0 0 22 22" fill="none" xmlns="http://www.w3.org/2000/svg">
<g clip-path="url(#clip0_54_188)">
<path fill-rule="evenodd" clip-rule="evenodd" d="M21.9189 9.67037C22.2231 12.1679 21.662 14.6942 20.3292 16.8281C18.9963 18.962 16.9722 20.5745 14.5943 21.3967C12.2165 22.2189 9.6287 22.2011 7.26239 21.3463C4.89609 20.4915 2.89432 18.8514 1.59087 16.6994C1.44902 16.4654 1.4059 16.1847 1.47101 15.919C1.53612 15.6533 1.70412 15.4243 1.93806 15.2824C2.172 15.1406 2.45271 15.0975 2.71844 15.1626C2.98416 15.2277 3.21314 15.3957 3.355 15.6296C4.05713 16.7891 5.01378 17.7736 6.15256 18.5087C7.29134 19.2439 8.58241 19.7104 9.92809 19.873C11.2738 20.0355 12.6388 19.8899 13.9199 19.447C15.2009 19.0042 16.3645 18.2758 17.3225 17.3169C18.2806 16.358 19.0079 15.1938 19.4496 13.9123C19.8913 12.6308 20.0357 11.2657 19.872 9.92016C19.7082 8.57463 19.2405 7.28397 18.5044 6.14585C17.7682 5.00774 16.7828 4.05197 15.6228 3.35088C15.3886 3.20938 15.2203 2.98068 15.1548 2.71508C15.0893 2.44948 15.132 2.16875 15.2735 1.93463C15.415 1.70051 15.6437 1.53218 15.9093 1.46669C16.1749 1.40119 16.4556 1.44388 16.6897 1.58537C18.1174 2.44831 19.33 3.62463 20.2359 5.02534C21.1419 6.42604 21.7174 8.01445 21.9189 9.67037ZM12.375 1.375C12.375 1.73967 12.2301 2.08941 11.9723 2.34727C11.7144 2.60513 11.3647 2.75 11 2.75C10.6353 2.75 10.2856 2.60513 10.0277 2.34727C9.76987 2.08941 9.625 1.73967 9.625 1.375C9.625 1.01033 9.76987 0.660591 10.0277 0.402728C10.2856 0.144866 10.6353 0 11 0C11.3647 0 11.7144 0.144866 11.9723 0.402728C12.2301 0.660591 12.375 1.01033 12.375 1.375ZM3.8555 6.875C3.94721 6.71857 4.00707 6.54554 4.03163 6.36587C4.0562 6.18621 4.04499 6.00346 3.99864 5.82815C3.95229 5.65284 3.87172 5.48843 3.76157 5.34438C3.65142 5.20033 3.51387 5.07949 3.35683 4.98883C3.19979 4.89816 3.02636 4.83944 2.84654 4.81607C2.66672 4.7927 2.48405 4.80512 2.30905 4.85264C2.13405 4.90015 1.97017 4.98181 1.82686 5.09291C1.68355 5.20401 1.56363 5.34236 1.474 5.5C1.29454 5.81564 1.24721 6.18946 1.34235 6.53986C1.43748 6.89027 1.66735 7.18883 1.9818 7.37038C2.29624 7.55193 2.66973 7.60173 3.02076 7.50893C3.37179 7.41612 3.67187 7.18823 3.8555 6.875ZM1.375 9.625C1.73967 9.625 2.08941 9.76987 2.34727 10.0277C2.60513 10.2856 2.75 10.6353 2.75 11C2.75 11.3647 2.60513 11.7144 2.34727 11.9723C2.08941 12.2301 1.73967 12.375 1.375 12.375C1.01033 12.375 0.660591 12.2301 0.402728 11.9723C0.144866 11.7144 0 11.3647 0 11C0 10.6353 0.144866 10.2856 0.402728 10.0277C0.660591 9.76987 1.01033 9.625 1.375 9.625ZM6.875 3.8555C7.03264 3.76587 7.17099 3.64595 7.28209 3.50264C7.39319 3.35933 7.47485 3.19545 7.52236 3.02045C7.56988 2.84545 7.5823 2.66278 7.55893 2.48296C7.53556 2.30314 7.47684 2.12971 7.38618 1.97267C7.29551 1.81563 7.17467 1.67808 7.03062 1.56793C6.88657 1.45778 6.72216 1.37721 6.54685 1.33086C6.37154 1.28451 6.18879 1.2733 6.00913 1.29786C5.82946 1.32243 5.65643 1.38229 5.5 1.474C5.18677 1.65763 4.95888 1.95771 4.86607 2.30874C4.77327 2.65977 4.82307 3.03326 5.00462 3.3477C5.18617 3.66215 5.48473 3.89202 5.83514 3.98715C6.18554 4.08229 6.55936 4.03496 6.875 3.8555Z" fill="#5E5F60"/>
</g>
<defs>
<clipPath id="clip0_54_188">
<rect width="22" height="22" fill="white"/>
</clipPath>
</defs>
</svg>
